<svg width="370" height="473" viewBox="0 0 370 473" fill="none" xmlns="http://www.w3.org/2000/svg">
<path fill-rule="evenodd" clip-rule="evenodd" d="M177.898 8.11861C171.684 14.9339 170.246 17.3151 170.246 20.7842C170.246 25.516 171.752 26.2607 174.248 22.7638C175.15 21.5023 176.592 20.0432 177.453 19.5227C180.152 17.8913 179.167 20.8867 175.595 25.1778C172.168 29.2916 172.168 29.2916 176.535 28.4139C186.25 26.4583 192.609 14.2601 189.803 2.9612C188.567 -2.0151 186.207 -0.992987 177.898 8.11861ZM145.178 4.83316C145.178 5.55257 145.996 8.11734 146.995 10.5327C148.439 14.0246 148.479 14.9251 147.189 14.9251C142.549 14.9251 138.255 25.3083 140.365 31.4257C141.947 36.0132 143.925 36.345 143.925 32.0236C143.925 27.3715 146.206 28.1618 146.669 32.9735C147.065 37.0898 147.065 37.0898 149.254 33.0368C151.707 28.4987 152.097 22.3218 150.163 18.6703C149.128 16.716 149.249 16.3917 150.79 16.9883C151.84 17.3961 152.699 18.2384 152.699 18.8603C152.699 19.4821 153.847 19.9913 155.249 19.9913C157.498 19.9913 157.625 19.6531 156.321 17.1415C154.885 14.3767 154.914 14.3577 157.315 16.5083C162.085 20.7816 163.193 16.9554 159.033 10.577C155.355 4.93956 145.178 0.720661 145.178 4.83316ZM251.717 13.5914C249.306 14.8883 247.049 15.7749 246.703 15.5609C246.359 15.3468 245.928 17.2175 245.746 19.719C245.415 24.2659 245.415 24.2659 248.747 21.1793C252.078 18.0915 252.078 18.0915 249.873 21.5745C247.907 24.6826 247.884 25.0575 249.673 25.0575C252.665 25.0575 259.033 18.5854 259.956 14.6084C260.946 10.3325 258.368 10.0146 251.717 13.5914ZM111.818 15.6052C109.111 19.781 108.272 33.4345 110.857 31.2674C111.809 30.4682 112.59 28.7103 112.59 27.3614C112.59 26.0112 113.079 25.2133 113.676 25.5857C114.272 25.958 114.473 27.8452 114.119 29.7767C113.481 33.2737 113.491 33.2787 116.144 30.9001C120.014 27.4272 120.863 21.0349 118.083 16.2803C115.323 11.5586 114.499 11.4699 111.818 15.6052ZM223.177 17.2505C221.28 18.4676 228.922 26.029 234.645 28.5988C238.599 30.3732 240.499 29.6804 238.159 27.3158C235.739 24.8701 236.475 23.2134 238.969 25.4945C241.951 28.2214 242.943 28.1403 242.943 25.1702C242.943 19.0452 229.056 13.4812 223.177 17.2505ZM263.799 20.9171C261.227 25.9441 262.293 31.8994 266.234 34.5085C270.128 37.0873 270.875 36.9657 269.308 34.007C267.748 31.0585 267.679 30.1237 269.023 30.1237C269.579 30.1237 270.566 31.5448 271.216 33.28C273.2 38.5805 275.753 35.4737 274.17 29.683C271.751 20.8298 266.231 16.1638 263.799 20.9171ZM156.663 27.3981C152.642 31.1927 150.959 35.5446 151.655 40.3448C152.186 44.0128 155.206 45.1679 155.206 41.7026C155.206 40.2929 155.692 38.8351 156.286 38.464C157.806 37.5153 157.361 47.0196 155.832 48.143C155.143 48.6496 153.451 48.7649 152.072 48.3989C149.743 47.782 149.727 47.8365 151.834 49.1677C153.942 50.4975 153.961 50.8205 152.096 53.6968C150.992 55.3991 150.426 57.3471 150.84 58.0234C151.255 58.701 151.087 59.2545 150.468 59.2545C149.454 59.2545 146.432 53.878 146.432 52.0744C146.432 51.6729 147.418 52.0997 148.625 53.0218C150.519 54.4695 150.596 54.4479 149.189 52.8609C148.293 51.849 146.931 51.0219 146.16 51.0219C145.39 51.0219 144.499 50.2303 144.181 49.2626C143.778 48.0455 144.133 47.8276 145.329 48.5559C146.793 49.4463 146.797 49.2816 145.35 47.4793C143.57 45.2629 140.777 45.7821 142.175 48.0695C142.713 48.9485 142.209 48.9764 140.63 48.1544C138.449 47.0196 131.516 47.3071 130.252 48.585C129.309 49.5375 140.775 59.2545 142.841 59.2545C143.437 59.2545 143.925 58.3996 143.925 57.3547C143.925 56.3098 143.361 55.4548 142.672 55.4548C141.982 55.4548 141.418 54.9026 141.418 54.2275C141.418 51.5842 145.648 54.8481 148.867 59.9764C151.868 64.7602 155.859 66.2446 155.123 62.3044C154.682 59.9346 155.244 57.9879 156.371 57.9879C157.054 57.9879 157.117 59.4685 156.523 61.5647C155.849 63.9382 156.074 66.1737 157.192 68.2141C159.561 72.5343 159.472 76.1871 157.021 75.2359C155.75 74.7432 155.386 74.9914 155.973 75.949C156.597 76.9685 156.138 77.1306 154.471 76.4796C145.182 72.851 143.08 75.5652 148.555 84.1157C150.044 86.4424 150.019 86.9148 148.372 87.5531C147.303 87.9673 146.594 87.6684 146.76 86.873C146.924 86.0915 145.375 84.5451 143.32 83.4356C138.591 80.886 136.484 78.3098 136.489 75.0864C136.494 72.7889 136.647 72.832 138.138 75.5512C139.567 78.1553 139.892 78.2668 140.601 76.3986C142.773 70.6763 138.856 60.1069 135.369 62.2841C133.484 63.462 131.366 71.6465 132.306 74.1226C132.812 75.4563 132.577 75.8261 131.604 75.2194C126.762 72.1962 131.295 77.5309 136.718 81.2394C140.338 83.7142 144.612 87.1744 146.218 88.9286C147.824 90.6828 149.798 91.9899 150.604 91.8354C151.412 91.6796 151.983 92.6092 151.875 93.9036C151.737 95.5654 152.071 95.8592 153.013 94.9068C154.525 93.3793 151.912 89.2111 150.137 90.3193C149.573 90.6714 148.794 90.4396 148.406 89.8051C147.473 88.2801 151.265 86.854 153.125 88.0294C155.369 89.4454 157.628 89.5467 158.413 88.2637C158.804 87.6241 158.243 86.759 157.165 86.341C156.088 85.9231 155.206 85.0061 155.206 84.3044C155.206 83.6027 156.687 84.008 158.497 85.2062C162.186 87.6494 163.924 86.3676 163.961 81.1773C163.971 79.6511 164.626 77.9982 165.416 77.5056C166.445 76.8621 166.58 77.6499 165.895 80.2806C164.466 85.7597 164.469 85.8635 166.345 94.4014C167.3 98.7558 168.569 102.317 169.165 102.317C170.805 102.317 170.463 99.227 168.374 95.1791C166.361 91.2793 165.883 87.1187 167.449 87.1187C167.979 87.1187 169.374 85.552 170.55 83.6357C172.687 80.1527 172.687 80.1527 172.868 85.2189C173.04 90.0305 173.093 90.0938 173.911 86.4854C174.385 84.3956 175.464 82.834 176.309 83.0151C177.403 83.2506 177.293 82.2678 175.925 79.5954C174.87 77.5334 174.007 74.0896 174.007 71.9428C174.007 66.3244 170.78 59.1266 168.636 59.9587C165.902 61.0188 164.175 57.8511 163.746 50.9902C163.407 45.5478 163.021 44.7474 160.914 45.1185C158.823 45.4858 158.709 45.2616 160.113 43.5517C161.573 41.7748 162.133 41.9698 165.249 45.3389C169.079 49.483 174.538 50.9586 171.339 46.9854C169.834 45.1134 169.893 44.9513 171.813 45.6783C173.02 46.1355 174.007 45.9899 174.007 45.3541C174.007 43.5163 168.695 40.2562 165.7 40.2562C163.239 40.2562 163.031 39.7546 163.627 35.2659C165.06 24.4686 162.651 21.7455 156.663 27.3981ZM222.617 28.5646C216.143 35.5585 213.699 44.9931 216.494 52.2048C217.595 55.0457 218.485 53.9324 219.704 48.1861C220.983 42.1623 223.461 41.2137 222.354 47.1716C221.316 52.7659 223.14 52.8609 227.159 47.4211C233.082 39.405 228.85 21.8316 222.617 28.5646ZM93.3831 27.2297C90.914 31.2662 99.6012 42.7893 105.114 42.7893C108.374 42.7893 108.232 41.0566 104.756 38.4475C101.692 36.1462 103.816 36.1411 109.369 38.4361C111.656 39.381 111.679 39.2784 109.791 36.554C106.146 31.2966 94.8296 24.865 93.3831 27.2297ZM172.738 35.3483C177.575 44.6891 177.575 44.6891 177.302 60.2335C177.151 68.7828 177.46 76.4771 177.989 77.332C178.516 78.187 178.678 76.6063 178.347 73.8199C177.782 69.0741 177.832 68.9766 179.13 72.2899C180.044 74.6178 181.011 75.4601 181.962 74.7533C187.587 70.58 190.708 70.8169 185.914 75.0522C179.438 80.7733 186.958 81.7396 196.053 76.3542C212.606 66.5511 205.889 54.1705 188.896 63.1605C187.046 64.1383 187.022 63.7685 188.631 59.0506C189.603 56.1983 190.15 53.6145 189.848 53.308C189.545 53.0028 188.647 54.7392 187.855 57.1685C187.062 59.5977 185.602 62.2651 184.61 63.0959C183.619 63.9281 183.08 65.0528 183.413 65.5987C183.747 66.1433 183.176 66.9146 182.146 67.3148C180.594 67.9165 180.274 66.5194 180.274 59.1696C180.274 50.6926 180.384 50.3595 182.78 51.6552C185.332 53.0357 186.487 51.2866 184.034 49.7553C183.344 49.3247 182.783 48.0088 182.787 46.8309C182.792 45.2667 183.623 45.7125 185.875 48.4888C188.957 52.2884 188.957 52.2884 189.002 48.2697C189.059 43.2997 183.423 37.1569 177.759 36.0119C175.603 35.5762 174.139 34.7302 174.505 34.1324C174.871 33.5333 173.535 31.4612 171.536 29.5259C167.953 26.0568 167.969 26.1379 172.738 35.3483ZM253.273 31.8133C247.281 35.1532 244.718 45.3224 249.868 45.3224C250.771 45.3224 251.767 46.0355 252.083 46.9056C252.542 48.1721 252.989 48.1721 254.318 46.9056C255.232 46.0355 256.837 45.3224 257.888 45.3224C259.172 45.3224 258.829 46.0063 256.836 47.4173C254.487 49.079 253.394 49.2082 251.543 48.0391C248.397 46.0545 248.607 47.226 252.269 52.0757C254.093 54.4935 255.282 57.7055 255.217 60.041C255.155 62.1942 255.481 64.569 255.938 65.3175C256.397 66.066 256.198 67.0362 255.497 67.4744C254.787 67.919 254.224 67.0742 254.224 65.5645C254.224 60.5958 247.635 55.4548 241.264 55.4548C238.167 55.4548 235.42 54.8127 235.161 54.0287C234.612 52.3619 225.551 56.6454 222.965 59.7953C220.543 62.7439 219.15 62.2258 218.961 58.3046C218.849 55.9627 218.487 56.6885 217.859 60.521C217.345 63.6558 216.331 68.0735 215.607 70.3368C213.887 75.7121 215.539 75.5791 219.28 70.0405C220.92 67.6125 222.968 65.3504 223.829 65.0135C226.327 64.0357 225.641 66.0901 222.889 67.8265C219.801 69.7758 219.579 72.4457 222.576 71.5895C223.783 71.2437 225.586 70.7497 226.584 70.4914C229.002 69.8644 233.609 64.3904 234.71 60.8377C235.909 56.9646 237.069 57.2419 240.895 62.3107C247.057 70.4736 253.947 74.6976 250.508 68.204C248.502 64.4182 248.975 63.4177 251.231 66.6714C253.15 69.4414 253.076 69.7707 249.737 73.293C245.884 77.3561 244.622 81.0278 247.454 79.9297C248.419 79.5548 249.21 78.8582 249.21 78.3807C249.21 73.7084 257.908 68.6118 260.976 71.4869C263.337 73.6995 264.251 74.0327 264.251 72.6787C264.251 71.6477 263.687 70.4508 262.998 70.0202C260.49 68.4535 261.744 66.7639 264.363 68.1812C268.776 70.5674 266.789 65.4302 262.143 62.4373C259.964 61.0353 257.876 59.0328 257.503 57.9879C257.129 56.943 255.887 54.8051 254.744 53.2384C252.69 50.4228 252.717 50.3886 257.161 50.3886C260.403 50.3886 262.894 49.2918 266.087 46.4572C272.594 40.6855 272.04 38.5197 264.251 39.2759C257.172 39.9636 257.251 40.0307 260.033 35.7396C261.161 34.0007 261.866 32.382 261.6 32.1414C259.933 30.6354 255.687 30.467 253.273 31.8133ZM117.089 35.2875C113.406 39.709 113.281 40.6627 115.679 45.9557C117.401 49.7553 117.401 49.7553 117.502 46.2723C117.557 44.356 118.115 42.7893 118.739 42.7893C119.365 42.7893 119.562 44.0052 119.177 45.4921C118.123 49.5653 121.578 47.8378 122.98 43.5923C125.941 34.6137 122.126 29.2371 117.089 35.2875ZM128.38 32.3225C125.411 35.3217 131.456 44.0558 136.501 44.0558C138.88 44.0558 139.005 43.7962 137.508 41.9736C135.987 40.1219 136.11 39.9915 138.608 40.7919C142.695 42.1028 142.056 39.7749 137.345 36.1969C132.636 32.6214 129.448 31.2434 128.38 32.3225ZM286 32.648C281.993 34.2831 281.167 36.4527 284.545 36.4755C286.137 36.4869 288.285 37.048 289.319 37.7231C290.696 38.6223 289.773 38.9554 285.872 38.9706C278.438 38.9972 279.232 41.0668 287.622 43.5315C294.045 45.4174 304.6 45.501 306.403 43.6797C310.729 39.3075 293.077 29.7628 286 32.648ZM232.154 35.7244C231.366 37.8003 233.298 41.9116 237.412 46.9107C240.325 50.4494 242.644 49.6603 241.121 45.6492C240.453 43.8912 240.731 43.9317 242.889 45.9063C245.117 47.9429 245.45 47.9834 245.45 46.2115C245.45 42.1446 242.606 38.0296 238.392 35.9993C233.157 33.4763 233.01 33.47 232.154 35.7244ZM205.341 39.2999C196.708 44.4814 192.807 48.0011 192.807 50.6077C192.807 52.5164 193.235 52.8977 194.374 52.0073C198.299 48.9384 200.945 49.1195 197.508 52.2226C190.766 58.3084 194.731 59.4711 203.646 54.0211C209.701 50.3202 212.203 45.5833 211.753 38.673C211.573 35.9258 210.844 35.9967 205.341 39.2999ZM278.199 42.5474C284.743 50.324 285.738 58.8125 280.787 64.6374C278.038 67.8721 277.234 67.3744 277.716 62.7375C278.456 55.6321 270.764 46.1241 267.833 50.5203C265.923 53.3853 267.562 61.9092 270.584 64.8235C273.347 67.4871 273.347 67.4871 272.676 64.6386C272.308 63.0719 272.463 61.5052 273.02 61.1569C274.303 60.3564 276.873 67.5872 275.742 68.817C275.282 69.3198 276.131 69.0868 277.627 68.3002C279.125 67.5137 281.471 65.4302 282.841 63.6697C284.211 61.9092 285.541 61.1011 285.796 61.8725C286.05 62.6438 286.242 60.6629 286.222 57.4686C286.202 54.2757 285.882 51.6615 285.512 51.659C285.141 51.6564 284.75 50.4697 284.642 49.0207C284.404 45.8252 282.627 43.5505 277.523 39.9079C273.651 37.1442 273.651 37.1442 278.199 42.5474ZM60.5693 49.136C58.3733 56.1286 64.1139 72.0239 69.9334 75.0649C75.4909 77.9691 76.5626 77.4878 74.3177 73.1017C73.2248 70.9651 72.5216 68.2572 72.756 67.0856C73.0343 65.6949 74.0395 66.812 75.6514 70.3039C80.146 80.0387 84.6846 74.2416 80.7389 63.804C78.7748 58.606 70.8295 49.1221 68.4381 49.1221C67.8239 49.1221 67.5807 48.694 67.8991 48.1721C68.2162 47.6491 66.8701 47.1044 64.906 46.9613C62.3441 46.7751 61.1182 47.3894 60.5693 49.136ZM123.839 51.1042C123.168 52.8913 122.617 56.059 122.617 58.145C122.617 60.5122 122.115 61.6229 121.279 61.1011C120.542 60.6414 121.378 63.1314 123.135 66.636C126.366 73.0815 128.428 75.3372 129.808 73.9415C130.224 73.521 129.425 71.896 128.031 70.3318C124.138 65.9609 123.394 64.2156 125.83 65.1604C127.513 65.8127 127.754 65.4391 127.064 63.2454C126.553 61.6192 126.747 60.521 127.547 60.521C128.283 60.521 128.884 61.9459 128.884 63.6874C128.884 67.2249 130.713 67.9342 131.884 64.8501C133.311 61.0923 132.638 56.0932 130.151 51.9718C127.157 47.0094 125.468 46.7777 123.839 51.1042ZM297.237 49.4856C292.46 50.9472 286.177 57.1913 287.426 59.2342C288.055 60.2627 289.008 60.0512 290.696 58.5072C293.624 55.831 293.861 57.5484 291.005 60.7376C289.073 62.8946 289.074 63.0542 291.022 63.0542C292.663 63.0542 292.97 63.8825 292.446 66.888C291.926 69.8733 292.498 71.4476 295.036 74.0111C298.435 77.4473 284.444 77.636 275.689 74.2733C273.872 73.5754 272.156 73.5577 271.491 74.2302C270.322 75.4107 288.648 78.2528 297.432 78.2528C302.012 78.2528 302.142 78.1426 300.167 75.9363C297.247 72.6762 297.578 71.0563 300.599 73.8199C305.104 77.9387 303.717 71.4805 299.033 66.5232C294.959 62.2119 294.959 62.2119 299.033 58.164C305.434 51.8046 304.494 47.264 297.237 49.4856ZM101.079 52.6051C100.632 56.5428 108.351 64.3207 112.709 64.3207C115.695 64.3207 115.808 62.3158 112.914 60.6794C109.746 58.8872 111.863 57.5054 115.097 59.2545C118.822 61.2696 119.771 59.8409 116.866 56.5947C110.698 49.7034 101.669 47.4223 101.079 52.6051ZM86.5183 59.5838C83.5277 63.2251 83.2808 76.586 86.1147 81.4407C87.5812 83.951 88.2154 85.652 87.5248 85.2201C86.8342 84.7895 86.2689 85.0403 86.2689 85.7774C86.2689 86.5146 86.6925 87.1314 87.2089 87.1466C87.7253 87.1618 89.5252 88.2434 91.2073 89.5505C94.2655 91.9253 94.2655 91.9253 90.9177 91.2793C80.7452 89.3136 79.8364 94.8637 89.4024 100.532C91.4705 101.758 93.4446 103.158 93.7892 103.646C94.1339 104.132 95.826 103.974 97.5494 103.294C100.683 102.055 100.683 102.055 97.8628 100.727C96.3123 99.9958 95.0426 98.9002 95.0426 98.2922C95.0426 97.683 96.7071 98.0554 98.7401 99.118C103.222 101.46 103.669 101.494 103.331 99.4676C102.717 95.7617 99.7767 92.0228 98.0144 92.7055C96.9653 93.112 96.5003 92.8752 96.939 92.1583C97.3639 91.463 95.9864 89.9026 93.8782 88.6905C89.93 86.4196 88.2154 78.268 91.2825 76.353C92.027 75.8882 92.5358 77.37 92.5358 80.0032C92.5358 82.4413 93.0748 84.773 93.7341 85.1847C95.6117 86.3575 98.5697 80.5592 98.2401 76.353C98.0759 74.2632 97.854 71.2906 97.7462 69.7479C97.3476 64.0484 89.0339 56.5213 86.5183 59.5838ZM101.529 69.3413C99.5962 74.3569 100.667 91.886 103.071 94.5774C105.976 97.83 107.609 98.0047 107.364 95.0347C106.987 90.5017 107.614 87.1187 108.83 87.1187C109.519 87.1187 110.083 89.7316 110.083 92.9233C110.083 100.138 112.433 99.9502 115.018 92.5282C117.273 86.0535 115.502 78.9823 110.056 72.7142C108.034 70.3888 106.623 68.2394 106.919 67.9405C107.214 67.6416 106.292 67.3972 104.868 67.3972C103.443 67.3972 101.941 68.2724 101.529 69.3413ZM205.21 70.8878C203.424 74.2442 201.509 83.5141 202.763 82.7301C203.222 82.4439 204.241 83.9333 205.028 86.0396C206.184 89.1325 206.14 89.7468 204.801 89.2275C203.845 88.8564 200.596 91.6276 197.13 95.768C192.196 101.664 191.946 102.165 195.742 98.5684C202.089 92.551 222.258 80.9936 223.761 82.5122C224.093 82.8466 222.764 83.9764 220.806 85.0226C217.759 86.6501 217.565 87.0478 219.445 87.7912C224.315 89.7151 234.358 83.7725 235.827 78.0983C236.858 74.1112 222.399 75.3207 219.529 79.4636C217.435 82.4831 207.947 88.9083 206.998 87.9496C206.661 87.6089 207.588 86.0003 209.055 84.3741C210.523 82.7491 212.545 80.5161 213.546 79.413C215.851 76.8761 215.859 75.7197 213.572 75.7197C212.585 75.7197 211.435 74.6317 211.018 73.3006C209.584 68.7359 206.94 67.6378 205.21 70.8878ZM37.3852 76.3568C34.7731 84.3538 38.7965 94.0366 46.3758 97.9971C51.1688 100.501 51.887 99.7754 48.6846 95.6616C47.2958 93.8783 46.1602 91.3794 46.1602 90.1078C46.1602 88.5347 47.2594 89.4074 49.602 92.841C52.8897 97.6564 53.0652 97.7438 53.4838 94.7738C55.1659 82.8504 40.6779 66.2775 37.3852 76.3568ZM315.64 72.9333C315.64 73.4906 316.317 74.6305 317.144 75.4664C318.124 76.4568 318.177 76.9863 317.297 76.9863C316.555 76.9863 315.245 76.1313 314.387 75.0864C311.062 71.0373 310.797 73.5045 313.818 80.406C317.653 89.1692 317.622 89.1351 319.997 87.144C322.703 84.8744 322.464 76.6202 319.615 74.0162C317.127 71.7402 315.64 71.3362 315.64 72.9333ZM259.864 80.8746C257.796 81.5003 255.173 81.7156 254.033 81.3533C252.838 80.9721 250.455 82.1031 248.393 84.0296C244.823 87.3657 244.823 87.3657 248.439 84.7097C252.893 81.4369 255.347 81.233 252.538 84.369C249.426 87.8432 249.984 88.5714 255.164 87.7988C259.864 87.0972 259.864 87.0972 254.851 89.5467C252.093 90.8943 250.575 92.0393 251.478 92.0912C252.38 92.1431 252.861 92.613 252.548 93.1348C252.233 93.6567 254.446 94.1544 257.463 94.2405C260.481 94.3267 262.682 93.9594 262.356 93.4262C262.029 92.8917 263.035 92.1317 264.592 91.7378C268.278 90.8031 276.059 82.6744 274.971 80.8948C273.977 79.2699 265.207 79.2585 259.864 80.8746ZM283.018 82.8707C279.125 85.4899 276.785 88.3751 276.785 90.5561C276.785 91.8518 277.521 91.7568 279.957 90.1432C281.702 88.9869 283.443 88.3587 283.827 88.7462C284.21 89.1325 283.068 90.4117 281.291 91.5884C279.514 92.7663 278.37 94.2367 278.75 94.8561C279.129 95.4767 278.748 95.9846 277.903 95.9846C277.058 95.9846 276.706 96.3278 277.121 96.7458C278.379 98.0187 296.101 88.7361 297.803 85.9129C300.666 81.1672 289.091 78.7848 283.018 82.8707ZM24.207 83.3494C22.0111 86.9401 26.1874 94.5078 31.3927 96.3696C34.5062 97.4842 35.5402 94.8637 32.8116 92.7739C29.5954 90.3117 31.7725 90.4624 35.5502 92.9639C37.2498 94.0886 38.6399 94.6218 38.6399 94.1468C38.6399 89.4099 26.1949 80.0995 24.207 83.3494ZM57.4846 84.502C55.3175 88.5942 56.0194 93.397 59.2645 96.6749C62.3403 99.7842 62.3403 99.7843 57.6977 99.8843C50.339 100.043 54.4251 100.841 69.714 102.23C81.3418 103.288 92.873 105.928 86.5158 106.079C83.7646 106.144 75.9346 112.109 77.3999 113.024C78.1419 113.487 78.7548 113.405 78.7623 112.841C78.7711 112.278 80.9131 110.783 83.5239 109.52C88.2279 107.244 93.4446 101.559 89.3836 103.133C88.3595 103.529 87.5223 103.224 87.5223 102.453C87.5223 101.682 87.0986 101.118 86.5822 101.2C81.9798 101.935 79.75 100.892 80.4168 98.3176C81.8281 92.8638 76.4899 84.6603 70.2881 82.7504C67.7851 81.979 67.4679 82.3235 67.4679 85.8078C67.4679 90.8208 70.6077 98.4797 72.7309 98.6444C73.6284 98.714 72.9515 99.1801 71.2281 99.6804C65.8034 101.255 59.8423 96.9345 63.0159 93.7276C63.4508 93.2881 64.1327 94.1861 64.53 95.7237C65.8185 100.699 67.8377 98.8204 67.1095 93.3274C66.029 85.1872 60.0341 79.6904 57.4846 84.502ZM128.258 84.174C122.423 85.4773 122.146 85.761 124.329 88.1978C125.459 89.4593 125.976 90.9019 125.479 91.4047C124.981 91.9076 125.637 91.9063 126.935 91.4035C128.309 90.8702 128.992 90.9842 128.568 91.6758C127.552 93.34 137.861 92.247 140.047 90.4599C141.482 89.287 141.131 88.8691 138.167 88.2181C134.525 87.4189 134.525 87.4189 137.971 87.2682C141.712 87.106 142.815 84.6515 139.225 84.4817C138.018 84.4247 135.621 84.2056 133.898 83.9954C132.174 83.7864 129.636 83.8662 128.258 84.174ZM173.826 93.0816C170.823 103.768 172.665 115.269 177.91 118.579C180.375 120.134 180.467 120.019 179.666 116.334C179.162 114.02 179.327 112.45 180.074 112.45C180.764 112.45 181.724 114.27 182.206 116.494C182.983 120.064 183.267 120.29 184.624 118.414C185.47 117.245 186.618 116.708 187.177 117.22C187.736 117.73 187.727 117.009 187.158 115.616C186.589 114.223 186.202 111.373 186.297 109.283C186.416 106.692 186.128 106.04 185.39 107.234C184.54 108.608 184.128 108.411 183.47 106.317C183.01 104.85 180.833 102.395 178.633 100.861C176.433 99.327 174.416 97.9047 174.151 97.702C173.886 97.4981 174.359 95.649 175.202 93.5921C176.046 91.5352 176.545 88.9286 176.312 87.7988C176.077 86.6691 174.959 89.0464 173.826 93.0816ZM333.645 89.0211C324.302 91.9987 317.929 97.5868 326.294 95.464C328.138 94.9967 329.428 95.2145 329.428 95.9922C329.428 96.7192 327.595 97.6856 325.354 98.1377C321.28 98.9623 321.28 98.9623 324.962 100.483C332.525 103.608 344.468 96.1644 344.468 88.3257C344.468 86.7121 339.986 86.9996 333.645 89.0211ZM208.475 91.4326C206.016 93.3337 206.027 93.3742 209.102 93.5617C212.008 93.7377 211.963 93.8175 208.475 94.6661C204.715 95.5806 204.715 95.5806 208.243 97.0485C213.245 99.1307 222.889 98.9762 222.889 96.8142C222.889 91.9291 212.736 88.1383 208.475 91.4326ZM312.463 94.6572C311.06 95.231 309.159 96.6204 308.236 97.7426C307.314 98.866 305.642 99.8045 304.52 99.8286C299.815 99.9324 296.467 102.965 298.875 104.94C300.266 106.083 300.734 106.166 300.139 105.167C299.622 104.297 299.75 103.584 300.423 103.584C301.097 103.584 302.443 103.275 303.416 102.899C304.461 102.493 305.75 103.4 306.567 105.115C307.603 107.289 307.972 107.48 308.035 105.875C308.082 104.697 308.706 103.367 309.423 102.919C310.269 102.391 310.441 103.256 309.915 105.377C308.743 110.094 311.084 109.402 313.848 104.217C315.148 101.779 317.069 99.7387 318.118 99.6842C319.407 99.6171 319.518 99.3764 318.46 98.9458C317.599 98.5937 316.894 97.2144 316.894 95.8795C316.894 93.2374 316.317 93.0778 312.463 94.6572ZM162.252 102.419C162.834 109.148 162.574 111.155 160.907 112.84C159.383 114.38 159.059 116.097 159.67 119.388C160.561 124.189 162.153 125.209 163.175 121.632C163.523 120.413 163.729 121.813 163.631 124.744C163.534 127.675 163.855 130.478 164.344 130.972C164.833 131.466 165.233 130.597 165.233 129.042C165.233 127.486 166.608 124.392 168.287 122.167C172.36 116.77 171.604 107.776 166.979 106.603C164.784 106.046 163.853 104.695 163.282 101.238C161.964 93.2425 161.505 93.7694 162.252 102.419ZM29.1654 100.339C23.6217 104.49 44.0859 114.366 51.8005 111.264C54.0077 110.376 53.7232 110.007 49.414 108.17C43.661 105.717 44.1924 103.909 50.0595 105.976C54.7435 107.627 55.9705 107.005 53.6367 104.164C49.1558 98.7077 34.4209 96.4051 29.1654 100.339ZM129.198 100.063C125.325 101.951 125.664 103.503 130.149 104.41C133.922 105.172 133.922 105.172 130.776 108.35C129.046 110.098 127.648 112.734 127.669 114.205C127.704 116.632 127.826 116.675 128.985 114.666C129.688 113.447 130.867 112.45 131.607 112.45C132.459 112.45 132.37 113.158 131.366 114.38C128.963 117.305 130.657 117.89 133.884 115.249C137.014 112.688 139.68 101.067 137.145 101.032C136.393 101.02 136.624 100.459 137.658 99.7843C140.36 98.0187 132.886 98.2657 129.198 100.063ZM200.955 99.4511C199.576 99.802 197.038 100.684 195.314 101.408C193.591 102.134 191.797 102.648 191.328 102.552C190.225 102.325 187.331 111.138 188.215 112.031C188.584 112.403 190.175 111.795 191.752 110.679C195.969 107.694 197.414 108.211 194.279 111.581C188.804 117.47 192.185 117.94 200.711 112.476C213.249 104.441 213.401 96.2772 200.955 99.4511ZM247.364 99.7285C246.957 100.395 245.703 100.583 244.578 100.146C243.091 99.5702 242.815 99.8172 243.57 101.051C244.327 102.288 244.048 102.53 242.537 101.945C241.398 101.503 240.601 101.549 240.765 102.046C240.929 102.544 239.795 104.234 238.243 105.8C234.609 109.472 234.493 111.775 238.037 109.858C239.475 109.081 240.933 108.73 241.278 109.078C241.622 109.427 240.712 110.356 239.256 111.144C237.798 111.932 236.937 113.119 237.342 113.78C239.834 117.854 248.935 110.322 250.045 103.267C250.752 98.771 249.201 96.7243 247.364 99.7285ZM270.92 99.327C269.92 99.7387 270.426 101.403 272.487 104.469C274.162 106.963 275.532 110.098 275.532 111.435C275.532 112.772 276.01 113.567 276.596 113.201C277.181 112.835 278.372 113.878 279.24 115.52C284.764 125.949 292.461 119.043 287.864 107.783C287.063 105.822 286.513 103.747 286.64 103.174C286.77 102.599 286.233 102.529 285.45 103.019C284.666 103.508 283.65 103.295 283.192 102.547C282.668 101.689 281.678 101.609 280.523 102.331C279.06 103.244 279.003 103.799 280.242 105.051C281.098 105.916 281.799 107.396 281.799 108.341C281.799 109.29 280.415 108.469 278.705 106.505C276.703 104.205 275.597 103.609 275.572 104.816C275.545 106.036 274.825 105.661 273.485 103.728C271.769 101.253 271.719 100.596 273.171 99.6652C274.985 98.505 273.468 98.2771 270.92 99.327ZM224.135 102.321C223.117 102.957 222.256 104.215 222.221 105.114C222.187 106.014 221.402 108.282 220.479 110.152C218.162 114.844 219.614 118.961 222.361 115.493C224.201 113.173 224.243 113.189 223.496 115.933C223.069 117.5 223.118 118.783 223.606 118.783C225.391 118.783 227.824 114.257 227.862 110.867C227.885 108.95 228.608 107.375 229.469 107.365C230.537 107.351 230.602 107.048 229.676 106.415C228.928 105.903 227.791 104.512 227.15 103.324C226.336 101.813 225.431 101.513 224.135 102.321ZM316.271 103.921C315.768 105.152 316.193 108.726 317.216 111.865C318.237 115.002 318.574 117.882 317.964 118.263C314.1 120.677 319.827 121.361 326.921 119.334C329.074 118.718 329.662 118.85 328.801 119.754C328.111 120.477 326.419 121.297 325.041 121.573C322.887 122.006 323.108 122.385 326.607 124.262C328.848 125.464 330.681 126.984 330.681 127.638C330.681 128.293 328.6 127.589 326.057 126.073C323 124.25 321.798 123.943 322.51 125.166C323.5 126.866 330.01 136.505 332.272 139.62C333.718 141.612 336.948 136.676 336.948 132.473C336.948 130.516 335.799 127.754 334.392 126.333C331.838 123.751 331.838 123.751 335.646 122.41C342.317 120.059 338.783 115.686 330.831 116.452C325.953 116.922 325.924 116.898 326.557 112.955C327.265 108.545 324.066 102.317 321.092 102.317C319.719 102.317 319.61 102.878 320.614 104.773C321.386 106.231 321.447 107.522 320.764 107.948C320.132 108.342 319.068 107.095 318.4 105.175C317.365 102.201 317.05 102.016 316.271 103.921ZM210.584 112.701C204.485 118.767 203.548 119.259 198.655 118.955C194.824 118.717 192.425 119.355 190.049 121.243C187.65 123.151 186.582 123.431 186.119 122.273C185.771 121.398 185.44 122.548 185.386 124.828C185.287 128.973 185.287 128.973 188.459 126.873C192.711 124.058 193.765 125.437 189.783 128.602C185.426 132.065 187.052 132.979 193.262 130.558C198.893 128.363 205.341 123.031 205.341 120.572C205.341 119.727 208.489 116.13 212.337 112.576C216.183 109.024 218.852 106.117 218.266 106.117C217.681 106.117 214.224 109.079 210.584 112.701ZM338.828 107.404C336.553 108.354 336.698 108.602 340.395 110.094C342.636 110.998 344.468 112.17 344.468 112.696C344.468 113.222 343.022 113.098 341.253 112.418C334.316 109.753 333.679 112.034 340 116.906C345.487 121.136 359.509 122.519 359.509 118.831C359.509 113.43 344.396 105.08 338.828 107.404ZM16.3181 108.418C8.12971 110.865 21.1061 121.316 32.3328 121.316C38.2112 121.316 38.8279 119.873 33.9396 117.553C32.0432 116.653 31.1671 115.671 31.9906 115.368C32.8141 115.065 34.6954 115.472 36.1707 116.27C39.5573 118.101 40.4911 117.212 38.7125 113.854C36.034 108.796 24.4577 105.987 16.3181 108.418ZM86.8354 111.697C81.2816 114.142 75.4007 124.152 80.7339 122.083C81.8256 121.66 86.6198 120.947 91.3877 120.5C100.823 119.613 101.892 118.798 96.6094 116.517C93.1625 115.027 93.1625 115.027 97.2361 115.607C101.963 116.279 102.508 114.708 98.5233 111.889C95.163 109.509 91.9267 109.457 86.8354 111.697ZM51.1951 115.345C44.9457 118.539 44.4844 125.934 50.6574 123.959C52.6653 123.317 55.8577 122.449 57.7541 122.03C61.6472 121.169 62.304 119.26 59.0075 118.389C57.4408 117.976 57.6639 117.768 59.7871 117.663C62.2839 117.54 62.5108 117.211 61.201 115.616C59.3071 113.31 55.3827 113.203 51.1951 115.345ZM145.912 120.842C144.129 124.064 142.672 127.803 142.672 129.149C142.672 130.496 142.108 131.245 141.418 130.815C139.809 129.81 139.825 130.973 141.462 134.065C143.097 137.15 145.178 137.239 145.178 134.223C145.178 132.963 146.007 130.826 147.018 129.474C149.192 126.571 149.42 127.471 147.681 132.093C145.611 137.593 150.362 135.559 153.174 129.741C158.417 118.894 151.606 110.547 145.912 120.842ZM252.577 116.271C246.646 118.07 242.281 123.183 247.957 121.683C251.682 120.699 250.991 122.242 246.703 124.482C243.669 126.068 242.943 126.117 242.943 124.735C242.943 122.672 237.738 117.516 235.656 117.516C233.692 117.516 233.748 119.643 235.736 120.565C236.599 120.965 236.035 120.974 234.483 120.585C231.159 119.751 230.94 120.404 233.632 123.126C235.423 124.934 235.053 125.113 229.558 125.091C223.516 125.067 223.516 125.067 228.515 120.658C231.475 118.049 232.731 116.249 231.594 116.249C230.537 116.249 227.202 118.577 224.182 121.422C221.163 124.267 219.496 126.478 220.477 126.338C226.533 125.469 238.466 126.777 232.916 127.702C227.276 128.641 227.276 128.641 234.17 128.671C244.645 128.714 245.45 128.819 245.45 130.142C245.45 130.816 244.604 131.04 243.57 130.64C240.336 129.386 241.517 132.418 245.33 135.162C251.172 139.364 255.302 134.764 249.817 130.165C248.192 128.802 248.784 128.15 253.89 125.676C257.176 124.084 259.404 122.737 258.841 122.682C258.28 122.627 256.588 123.229 255.081 124.021C252.344 125.459 252.344 125.459 255.164 122.356C257.856 119.393 259.029 114.861 257.044 115.092C256.528 115.151 254.517 115.682 252.577 116.271ZM265.818 115.899C261.418 116.451 260.392 118.239 263.938 119.176C265.504 119.589 265.281 119.797 263.158 119.902C260.58 120.03 260.406 120.319 261.846 122.073C263.898 124.571 270.968 123.709 274.434 120.541C276.701 118.466 277.507 119.227 276.933 122.899C276.851 123.421 277.209 123.711 277.725 123.542C278.981 123.132 283.557 126.541 284.936 128.915C285.888 130.554 285.748 130.575 283.919 129.077C282.537 127.944 281.799 127.833 281.799 128.76C281.799 131.038 282.355 132.105 283.365 131.765C283.882 131.59 284.305 131.909 284.305 132.473C284.305 133.036 285.193 134.603 286.278 135.956C287.364 137.307 287.894 137.702 287.458 136.831C287.021 135.961 287.262 135.248 287.992 135.248C288.721 135.248 289.319 133.789 289.319 132.007C289.319 129.823 289.83 129.032 290.886 129.58C291.748 130.028 290.478 128.649 288.066 126.516C285.653 124.382 282.673 122.295 281.445 121.878C280.217 121.46 277.845 119.739 276.175 118.051C274.505 116.363 272.408 115.074 271.514 115.186C270.622 115.297 268.058 115.619 265.818 115.899ZM303.416 116.175C299.9 117.056 293.079 123.445 293.079 125.856C293.079 128.235 294.24 128.117 297.237 125.432C299.634 123.284 299.666 123.302 298.259 126.011C297.461 127.548 295.828 129.384 294.631 130.089C291.146 132.141 293.844 131.643 298.579 129.361C305.872 125.846 310.027 114.517 303.416 116.175ZM107.043 118.648C107.54 119.618 108.143 122.112 108.383 124.188C109.325 132.368 114.749 137.767 121.991 137.735C124.286 137.725 124.233 137.515 121.364 135.248C119.168 133.511 118.811 132.763 120.173 132.743C121.241 132.727 122.783 133.388 123.599 134.213C125.396 136.029 126.71 135.017 125.721 132.579C124.517 129.615 116.126 123.849 113.015 123.849C111.403 123.849 110.083 123.388 110.083 122.824C110.083 122.261 109.196 120.694 108.111 119.341C107.025 117.99 106.545 117.677 107.043 118.648ZM69.4182 123.735C69.1061 124.244 69.9421 126.473 71.2745 128.688C73.5582 132.482 73.1784 134.009 70.5388 131.651C64.2555 126.039 51.5561 128.201 48.6119 135.382C47.4149 138.301 46.3119 139.056 43.1884 139.092C38.4995 139.146 35.3898 140.789 29.2331 146.467C23.6793 151.59 24.5768 153.044 33.4959 153.373C39.981 153.613 39.981 153.613 36.7159 156.264C33.437 158.927 30.7234 166.928 31.9781 170.231C32.9783 172.867 36.1331 172.326 36.1331 169.52C36.1331 168.167 36.6971 166.709 37.3865 166.278C38.1247 165.817 38.6399 167.2 38.6399 169.641C38.6399 173.209 38.8793 173.528 40.3557 171.932C43.3438 168.701 44.8442 162.239 43.6121 157.901C42.2396 153.064 42.6632 152.199 46.7995 151.4C50.0871 150.766 50.1523 151.237 47.6806 157.868C47.1366 159.329 52.7017 159.454 58.337 158.11C63.5824 156.859 68.8341 147.321 63.7078 148.357C59.0263 149.303 58.9223 148.555 63.3944 146.105C65.2908 145.065 66.103 144.192 65.2006 144.164C64.2981 144.136 63.9208 143.523 64.362 142.802C64.8897 141.94 63.0986 141.668 59.1567 142.011C50.2137 142.788 47.1692 140.346 53.9313 137.819C56.7815 136.752 59.3785 135.078 59.7019 134.096C60.1055 132.869 59.6493 132.56 58.2379 133.106C55.6246 134.119 55.6234 133.104 58.2342 130.467C60.1268 128.554 60.855 128.706 67.948 132.507C75.9484 136.796 86.9633 139.916 79.6885 135.834C77.7922 134.77 76.2417 132.954 76.2417 131.799C76.2417 130.003 76.5099 130.055 78.0817 132.156C79.849 134.516 79.9242 134.479 79.9618 131.221C79.9981 128.15 77.3572 123.996 75.2127 123.751C74.7439 123.698 73.3764 123.464 72.1732 123.232C70.9699 122.999 69.7291 123.224 69.4182 123.735ZM90.0291 125.954C90.0291 126.415 91.4354 129.219 93.155 132.184C95.4124 136.075 95.8486 137.752 94.7218 138.212C93.8644 138.561 94.3859 138.893 95.8799 138.947C97.3752 139.002 99.3493 139.239 100.267 139.473C101.186 139.707 101.513 139.659 100.996 139.368C100.48 139.075 100.121 137.601 100.202 136.093C100.321 133.847 100.454 133.763 100.934 135.634C101.694 138.602 104.332 137.711 104.828 134.318C105.318 130.971 98.0194 125.115 93.3581 125.115C91.5269 125.115 90.0291 125.493 90.0291 125.954ZM257.652 127.139C257.167 127.629 257.748 128.83 258.944 129.805C260.937 131.432 260.884 131.514 258.297 130.795C256.746 130.364 255.477 130.531 255.477 131.167C255.477 133.107 259.918 136.514 262.447 136.514C264.212 136.514 263.657 137.322 260.313 139.617C257.827 141.325 255.438 143.654 255.006 144.795C254.323 146.592 253.707 146.433 250.365 143.591C246.459 140.27 242.427 139.351 241.122 141.484C240.729 142.129 241.4 142.917 242.615 143.237C244.702 143.788 244.702 143.827 242.63 143.967C238.792 144.224 240.27 146.5 244.837 147.366C247.257 147.825 249.534 148.683 249.895 149.275C250.256 149.865 254.538 147.236 259.41 143.431C264.284 139.628 268.998 136.514 269.886 136.514C270.776 136.514 271.875 135.534 272.33 134.336C272.785 133.139 272.744 132.577 272.238 133.087C271.733 133.599 269.869 132.625 268.098 130.923C264.696 127.655 259.136 125.641 257.652 127.139ZM308.12 127.648C308.12 128.345 308.932 128.915 309.926 128.915C310.92 128.915 312.118 129.546 312.589 130.317C313.189 131.297 312.173 131.453 309.217 130.838C304.986 129.955 304.986 129.955 308.673 133.511C314.299 138.937 327.69 138.486 324.29 132.986C321.149 127.902 308.12 123.602 308.12 127.648ZM14.6975 130.537C1.69478 139.358 6.31103 149.168 20.1397 142.105C29.6292 137.258 32.5784 132.01 25.1659 133.163C20.4656 133.895 20.4656 133.895 24.7685 131.94C28.1101 130.422 28.6703 129.728 27.2753 128.836C24.1769 126.854 19.1182 127.538 14.6975 130.537ZM129.465 137.421C130.14 149.846 146.432 167.855 146.432 156.178C146.432 152.071 146.662 151.818 149.879 152.393C155.748 153.444 161.461 146.583 161.491 138.448C161.506 134.689 161.83 133.847 162.726 135.248C163.455 136.389 163.948 136.546 163.961 135.639C163.999 132.584 161.671 132.869 156.09 136.606C149.563 140.974 145.178 147.594 145.178 153.081C145.178 161.704 131.306 146.084 129.906 135.885C129.095 129.975 129.065 130.079 129.465 137.421ZM208.826 131.622C208.502 132.584 210.098 134.628 212.434 136.243C214.737 137.835 216.604 139.83 216.582 140.676C216.561 141.522 215.72 141.116 214.716 139.773C212.446 136.742 211.054 137.911 212.068 141.995C213.149 146.345 217.189 151.025 218.926 149.94C221.054 148.611 220.704 140.821 218.413 138.504C216.922 136.997 216.845 136.492 218.1 136.418C219.01 136.365 217.894 135.64 215.619 134.807C213.344 133.974 211.016 132.529 210.444 131.594C209.578 130.179 209.308 130.183 208.826 131.622ZM300.599 133.906C300.599 134.563 301.163 135.45 301.853 135.881C302.542 136.312 303.106 137.288 303.106 138.052C303.106 138.816 301.889 138.355 300.403 137.027C297.737 134.649 297.709 134.65 298.37 137.148C298.738 138.541 299.251 140.536 299.507 141.581C300.01 143.632 296.869 143.921 292.452 142.229C290.36 141.429 290.424 141.63 292.833 143.445C294.677 144.833 296.831 145.34 298.787 144.843C300.473 144.415 301.853 144.608 301.853 145.271C301.853 147.312 307.14 148.425 314.943 148.03C322.393 147.652 322.393 147.652 318.39 152.26C314.586 156.637 312.366 163.127 315.891 159.566C318.082 157.352 319.989 157.703 318.122 159.976C315.433 163.25 317.662 163.412 321.344 160.212C328.775 153.753 325.592 146.7 315.235 146.666C310.129 146.649 309.267 146.302 309.687 144.43C310.353 141.456 307.413 135.633 304.429 134.019C301.443 132.403 300.599 132.379 300.599 133.906ZM77.0965 145.337C73.8076 149.288 73.2298 150.724 73.6409 153.929C73.8966 155.912 73.0969 155.923 70.0148 153.978C67.0054 152.078 65.2946 153.5 67.4429 156.116C69.615 158.76 70.8396 158.554 74.418 154.936C77.4951 151.828 77.4951 151.828 77.4951 155.13C77.4951 158.226 82.1439 155.233 82.6127 151.836C83.9162 142.4 81.7078 139.799 77.0965 145.337ZM93.8507 145.313C87.15 147.651 83.2833 150.948 84.1807 153.562C84.9854 155.907 97.1258 155.026 99.9798 152.417C103.538 149.162 103.214 147.727 99.1162 148.595C95.6693 149.324 95.6693 149.324 98.8028 147.397C100.526 146.338 103.064 145.409 104.443 145.336C106.95 145.202 106.95 145.202 104.443 144.114C101.104 142.663 101.609 142.606 93.8507 145.313ZM189.016 146.096C187.478 150.184 187.483 150.79 189.047 149.813C189.737 149.383 190.301 150.127 190.301 151.467C190.301 152.807 191.429 155.353 192.807 157.125C194.186 158.896 195.359 161.395 195.413 162.679C195.47 164.006 195.784 164.33 196.144 163.431C196.551 162.41 197.96 162.141 200.119 162.67C203.426 163.483 203.438 163.464 201.139 160.842C199.862 159.385 199.063 157.448 199.363 156.54C199.721 155.451 200.423 155.858 201.416 157.733C203.26 161.215 204.843 161.376 205.674 158.165C206.703 154.189 201.29 147.256 194.942 144.415C190.345 142.36 190.431 142.334 189.016 146.096ZM113.217 150.446C112.791 151.143 110.761 151.713 108.706 151.713C104.021 151.713 95.1667 156.184 94.1715 159.053C93.7592 160.241 92.0571 162.708 90.3888 164.536C87.4797 167.724 87.4333 168.045 89.2557 172.452C91.4416 177.739 79.478 179.396 70.8521 175C68.6461 173.875 67.4755 173.633 68.2513 174.462C69.0259 175.29 71.8461 176.754 74.5183 177.717C77.8022 178.9 78.4928 179.483 76.6516 179.521C75.1525 179.552 72.3324 180.917 70.3846 182.555C68.4356 184.193 66.1356 185.286 65.2732 184.983C62.2463 183.919 65.2532 188.618 68.3654 189.814C71.4274 190.99 71.4274 190.99 67.7575 195.733C63.16 201.672 61.9355 207.395 64.4748 211.059C66.9302 214.601 65.6618 216.499 61.4379 215.599C58.5362 214.981 58.3833 215.083 60.3374 216.334C61.5858 217.132 63.4182 217.471 64.4109 217.086C65.4023 216.701 66.2145 217.005 66.2145 217.761C66.2145 218.557 67.384 218.826 68.9883 218.403C70.6791 217.956 72.7585 218.512 74.3152 219.83C76.0499 221.296 75.8945 220.876 73.8302 218.515C70.8509 215.109 67.7236 213.651 69.4483 216.472C69.9622 217.312 69.6614 217.679 68.7188 217.362C66.3825 216.575 65.9764 209.503 68.1047 206.689C69.793 204.457 69.8732 204.585 69.1688 208.391C68.7188 210.826 68.9256 212.508 69.6739 212.508C71.6104 212.508 74.9883 206.633 74.9883 203.264C74.9883 197.921 76.8133 198.239 78.4126 203.86C79.8264 208.832 79.9242 208.93 79.4667 204.908C79.1884 202.47 78.5354 199.385 78.0153 198.051C77.277 196.159 77.46 195.869 78.8488 196.73C80.23 197.588 80.1836 197.153 78.6407 194.791C77.5477 193.118 75.8557 191.492 74.8805 191.178C73.6534 190.782 73.8076 191.404 75.3831 193.199C77.084 195.137 77.272 196.032 76.1302 196.745C75.2127 197.318 74.9244 197.172 75.4069 196.382C75.8506 195.656 75.3806 194.364 74.3616 193.509C71.7383 191.309 73.2097 189.713 77.8824 189.691C82.1615 189.669 83.4349 189.041 86.057 185.657C87.5774 183.695 87.2979 183.554 82.9236 184.085C78.1218 184.666 78.1218 184.666 81.882 183.183C83.9501 182.367 86.3015 180.794 87.1074 179.689C88.5977 177.646 98.2225 177.365 114.47 178.889C120.66 179.471 120.678 179.462 116.037 178.136C112.466 177.115 111.337 176.135 111.337 174.055C111.337 170.884 105.826 164.379 103.14 164.379C100.629 164.379 100.729 171.764 103.279 174.611C105.127 176.674 104.878 176.774 99.2152 176.24C91.651 175.526 90.3136 174.223 93.6639 170.838C96.3549 168.119 96.7761 166.82 96.3324 162.618C96.1356 160.759 96.5943 160.437 98.3804 161.174C103.954 163.477 110.708 163.253 114.845 160.628C119.778 157.501 119.27 155.776 113.585 156.356C109.613 156.761 109.647 156.713 114.47 155.087C117.228 154.156 119.994 153.675 120.618 154.017C121.241 154.358 121.343 153.97 120.844 153.154C120.345 152.339 119.412 151.999 118.771 152.401C118.129 152.801 117.604 152.544 117.604 151.827C117.604 151.111 116.665 150.89 115.518 151.334C114.116 151.879 113.73 151.659 114.339 150.662C114.838 149.846 114.963 149.18 114.618 149.18C114.273 149.18 113.643 149.75 113.217 150.446ZM156.217 160.459C151.605 165.052 147.797 169.24 147.757 169.761C147.718 170.283 147.685 171.109 147.685 171.594C147.685 172.08 144.865 169.568 141.418 166.011C137.971 162.453 135.151 159.948 135.151 160.441C135.151 160.935 135.828 162.023 136.655 162.859C137.825 164.04 137.628 164.379 135.768 164.379C134.453 164.379 131.332 162.361 128.833 159.895C125.826 156.927 124.288 156.071 124.288 157.362C124.288 158.435 124.942 159.312 125.741 159.312C128.432 159.312 132.644 165.141 132.665 168.893C132.693 174.036 137.648 182.397 141.885 184.451C144.359 185.65 145.226 186.854 144.801 188.495C144.459 189.819 145.225 191.773 146.567 193C147.872 194.193 148.93 194.653 148.92 194.022C148.892 192.334 145.971 184.445 144.157 181.16C141.877 177.03 143.039 177.623 149.085 183.672C152.033 186.621 154.08 188.075 153.635 186.903C153.067 185.406 153.645 184.522 155.583 183.925C157.098 183.459 159.326 182.202 160.533 181.131C162.581 179.314 162.726 179.547 162.726 184.624C162.726 188.319 162.023 190.604 160.533 191.746C158.443 193.348 158.443 193.431 160.533 193.469C161.74 193.492 162.726 194.079 162.726 194.776C162.726 196.506 158.546 196.378 156.78 194.593C155.703 193.506 155.511 193.783 156.008 195.703C156.373 197.11 158.033 198.999 159.698 199.899C161.61 200.934 162.78 202.741 162.871 204.806C162.975 207.139 163.187 207.408 163.611 205.749C164.066 203.969 164.946 203.613 167.372 204.227C181.249 207.747 185.296 206.647 181.622 200.355C180.191 197.903 178.98 194.648 178.932 193.12C178.847 190.443 178.805 190.434 177.767 192.876C176.349 196.211 176.398 196.549 175.648 178.311C175.29 169.603 174.725 162.194 174.393 161.845C174.059 161.497 173.978 168.201 174.211 176.744C174.552 189.285 174.312 192.15 172.964 191.626C172.046 191.269 169.648 190.976 167.637 190.976C162.655 190.976 162.403 182.105 167.118 172.714C171.495 163.995 171.141 152.524 166.486 152.226C165.452 152.16 160.831 155.865 156.217 160.459ZM14.0846 156.322C15.1387 160.795 19.1408 166.389 20.9808 165.962C21.7316 165.787 22.3457 166.197 22.3457 166.872C22.3457 167.546 23.2156 167.762 24.2797 167.349C25.9918 166.685 25.9693 166.325 24.0854 164.222C21.7905 161.661 23.3785 160.863 25.8339 163.344C27.7128 165.242 28.9148 164.116 27.8907 161.419C25.7863 155.877 12.8538 151.103 14.0846 156.322ZM329.664 155.562C326.501 158.54 325.913 162.507 328.801 161.387C329.935 160.947 330.681 161.381 330.681 162.479C330.681 163.684 331.422 164.019 332.874 163.468C334.766 162.752 334.84 162.922 333.411 164.698C331.387 167.214 335.697 167.132 340.395 164.565C344.557 162.289 343.827 160.579 338.694 160.579C335.191 160.579 334.336 160.151 334.895 158.679C336.798 153.666 333.663 151.798 329.664 155.562ZM349.887 156.289C346.202 158.124 343.665 161.457 344.958 162.762C345.26 163.068 346.714 162.664 348.191 161.866C349.666 161.068 351.547 160.679 352.371 161.002C353.194 161.325 352.036 162.272 349.795 163.108C344.863 164.946 344.486 166.912 349.064 166.912C350.902 166.912 352.012 167.309 351.531 167.796C351.05 168.282 351.944 169.422 353.517 170.329C356.328 171.95 356.317 171.968 352.847 171.413C348.598 170.734 348.86 172.662 353.491 176.156C357.252 178.993 367.537 180.556 368.804 178.483C370.305 176.03 367.098 172.064 361.033 168.872C357.149 166.829 355.982 165.741 357.629 165.7C361.103 165.611 368.283 160.994 368.283 158.847C368.283 155.12 355.734 153.375 349.887 156.289ZM220.628 160.956C216.765 164.984 215.018 171.978 217.875 171.978C218.565 171.978 219.129 171.157 219.129 170.153C219.129 169.148 219.715 167.962 220.432 167.513C221.278 166.985 221.45 167.85 220.924 169.972C219.834 174.353 221.832 174.126 224.498 169.566C229.666 160.726 226.852 154.466 220.628 160.956ZM303.986 160.312C301.75 162.67 300.599 165.259 300.599 167.931C300.599 172.657 302.13 173.175 304.135 169.128C305.468 166.438 305.505 166.473 304.817 169.761C304.279 172.329 304.578 173.244 305.95 173.244C306.974 173.244 308.515 174.099 309.373 175.144C310.536 176.56 310.556 177.044 309.452 177.044C308.639 177.044 308.279 177.546 308.653 178.157C310.663 181.444 319.947 179.956 318.655 176.554C318.267 175.534 315.739 174.322 313.036 173.861C310.332 173.399 308.12 172.468 308.12 171.792C308.12 171.115 308.571 170.843 309.123 171.188C309.674 171.532 310.892 170.568 311.831 169.046C313.293 166.675 313.283 166.49 311.768 167.758C310.291 168.994 310 168.285 310 163.44C310 156.403 308.454 155.599 303.986 160.312ZM290.15 166.701C285.027 172.001 283.733 176.854 288.066 174.511C289.765 173.591 290.572 173.578 290.572 174.467C290.572 175.187 290.008 175.778 289.319 175.778C288.63 175.778 288.066 176.653 288.066 177.722C288.066 179.344 288.533 179.415 290.886 178.149C295.157 175.85 296.755 173.089 296.799 167.936C296.854 161.454 295.468 161.196 290.15 166.701ZM120.079 166.361C118.388 170.854 118.548 173.5 120.693 176.596C121.702 178.052 122.172 179.604 121.737 180.045C121.303 180.484 121.897 180.844 123.059 180.844C124.718 180.844 124.993 180.124 124.338 177.489C123.752 175.127 123.931 174.398 124.941 175.03C125.731 175.523 126.378 176.782 126.378 177.827C126.378 178.901 126.984 179.348 127.774 178.854C129.759 177.615 128.314 168.506 125.663 165.546C122.755 162.3 121.541 162.476 120.079 166.361ZM256.731 164.379C256.731 165.075 257.295 165.645 257.984 165.645C258.673 165.645 259.237 166.235 259.237 166.956C259.237 167.845 258.43 167.831 256.731 166.912C255.218 166.093 254.224 166.039 254.224 166.775C254.224 168.691 260.571 173.244 263.241 173.244C264.836 173.244 265.334 173.78 264.711 174.828C263.975 176.065 264.198 176.06 265.731 174.806C266.81 173.923 268.703 173.593 269.938 174.071C271.534 174.691 271.907 174.489 271.225 173.375C270.621 172.388 270.894 171.954 271.963 172.202C272.896 172.419 275.414 171.333 277.557 169.791C279.7 168.249 281.814 167.35 282.254 167.793C282.692 168.238 283.052 167.735 283.052 166.677C283.052 165.135 281.634 165.436 275.896 168.2C268.741 171.647 268.741 171.647 266.226 168.329C262.381 163.256 256.731 160.906 256.731 164.379ZM73.7011 166.522C66.7974 171.295 67.8928 173.769 76.5388 172.929C82.0186 172.397 84.934 170.691 84.9967 167.981C85.0067 167.523 83.7458 167.416 82.1953 167.743C79.5218 168.306 79.5381 168.236 82.5087 166.403C85.6422 164.468 85.6422 164.468 81.2214 164.423C78.7886 164.399 75.4044 165.342 73.7011 166.522ZM242.317 165.548C240.938 166.102 238.82 166.401 237.61 166.211C236.401 166.023 235.686 166.316 236.022 166.866C236.358 167.416 234.353 169.461 231.566 171.413C226.638 174.863 224.142 178.007 224.142 180.76C224.142 182.765 227.362 182.394 229.181 180.18C230.053 179.119 231.065 178.55 231.428 178.919C231.793 179.286 230.725 181.095 229.057 182.936C226.022 186.285 226.022 186.285 228.843 185.583C230.533 185.161 231.678 185.467 231.7 186.346C231.722 187.151 232.401 186.67 233.212 185.277C234.571 182.939 234.801 183.134 236.21 187.81C237.05 190.596 237.781 191.879 237.833 190.66C237.886 189.44 238.476 188.443 239.144 188.443C239.811 188.443 240.049 189.256 239.672 190.25C238.356 193.716 244.358 190.768 246.766 186.767C250.518 180.535 245.761 179.901 238.87 185.717C235.689 188.403 235.839 183.056 239.073 178.466C240.391 176.596 241.661 173.372 241.893 171.305C242.205 168.533 243.057 167.439 245.137 167.14C246.688 166.918 247.957 166.205 247.957 165.556C247.957 164.158 245.78 164.154 242.317 165.548ZM199.272 169.527C197.657 170.182 195.824 170.396 195.199 170.006C194.572 169.614 194.061 170.787 194.061 172.611C194.061 174.435 194.521 175.639 195.084 175.289C195.646 174.937 198.325 175.434 201.037 176.394C206.096 178.184 210.876 177.776 214.006 175.286C215.422 174.159 214.924 173.722 211.499 173.095C207.222 172.311 207.222 172.311 211.608 172.105C215.747 171.909 215.857 171.792 213.562 170.038C210.849 167.964 203.758 167.711 199.272 169.527ZM14.3954 172.928C15.8494 178.403 21.051 182.11 27.2766 182.11C32.0482 182.11 32.2237 180.54 27.6726 178.588C24.4251 177.195 24.5103 177.15 29.1642 177.813C33.7416 178.464 33.9697 178.355 32.2977 176.317C28.0574 171.151 13.1746 168.333 14.3954 172.928ZM42.0566 172.929C40.8671 174.256 39.8845 176.439 39.8744 177.777C39.8632 179.121 39.4433 179.643 38.9344 178.944C36.489 175.581 33.1575 173.768 34.6603 176.617C36.3624 179.844 49.1822 191.173 50.7326 190.818C52.6528 190.38 56.1899 192.481 55.4805 193.64C55.1007 194.262 55.6672 196.039 56.7414 197.589C58.0449 199.47 58.7004 199.785 58.713 198.541C58.7305 196.921 58.8935 196.926 59.9476 198.576C60.8513 199.989 61.1671 200.045 61.1822 198.795C61.1922 197.87 59.5841 195.48 57.6075 193.483C55.1019 190.951 54.5078 189.66 55.6459 189.218C56.5446 188.87 57.4959 189.245 57.7617 190.05C58.0274 190.855 59.1366 189.707 60.2271 187.498C61.9981 183.913 62.0069 183.311 60.3085 181.887C58.2505 180.161 53.6806 184.308 53.6806 187.901C53.6806 189.081 51.9409 188.546 48.0804 186.178C44.9996 184.289 42.4702 181.889 42.4589 180.844C42.4414 179.204 42.5956 179.195 43.587 180.778C45.239 183.416 46.832 176.43 45.3455 173.065C44.2388 170.558 44.1811 170.557 42.0566 172.929ZM325.667 171.725C325.667 172.282 326.373 173.491 327.234 174.412C328.525 175.793 328.32 175.838 326.063 174.665C324.557 173.884 322.994 173.244 322.588 173.244C320.887 173.244 326.487 180.124 330 182.35C333.814 184.766 333.814 184.766 329.196 183.947C323.601 182.953 316.081 185.244 314.377 188.461C312.512 191.984 312.79 192.233 316.958 190.763C322.447 188.831 323.038 190.465 317.668 192.732C314.462 194.086 313.375 195.205 313.907 196.606C314.399 197.902 313.941 198.576 312.567 198.576C311.419 198.576 310.734 198.147 311.046 197.626C311.915 196.172 293.191 195.851 286.812 197.21C281.53 198.336 281.689 198.377 289.319 197.868C301.546 197.049 309.373 198.363 309.373 201.231C309.373 202.783 308.744 203.319 307.493 202.834C304.401 201.634 305.36 204.848 309.277 208.805C315.321 214.913 318.547 210.569 313.616 202.964C311.629 199.9 311.658 199.841 315.183 199.742C317.158 199.688 318.066 199.353 317.199 199.001C316.333 198.648 315.944 197.838 316.333 197.201C317.292 195.633 321.907 195.722 321.907 197.309C321.907 198.006 322.895 198.643 324.101 198.725C325.306 198.807 324.602 199.263 322.534 199.736C317.268 200.941 324.429 204.908 331.872 204.908C338.829 204.908 337.081 198.149 329.519 195.812C328.353 195.452 329.337 194.257 332.339 192.381C336.631 189.701 338.582 185.91 335.671 185.91C334.947 185.91 334.722 184.588 335.151 182.861C335.967 179.578 333.995 174.823 330.79 172.335C328.511 170.567 325.667 170.229 325.667 171.725ZM342.556 175.714C345.485 181.438 344.787 181.941 340.708 177.044C337.016 172.611 337.016 172.611 336.982 176.645C336.899 186.523 347.965 200.328 351.428 194.667C354.227 190.091 352.912 180.67 348.87 176.34C343.524 170.613 339.753 170.239 342.556 175.714ZM267.48 176.617C267.066 177.705 267.829 178.34 269.617 178.39C272.396 178.472 272.396 178.471 269.473 179.656C266.859 180.715 266.038 183.596 268.363 183.548C273.546 183.44 286.811 181.605 286.807 180.997C286.788 177.864 268.573 173.737 267.48 176.617ZM0.0653624 180.81C0.255879 183.612 0.834947 185.907 1.35135 185.909C1.86774 185.909 2.30017 186.907 2.31019 188.126C2.33777 191.452 9.95089 199.487 13.9279 200.388C17.4186 201.178 17.4186 201.178 14.8429 196.078C11.6505 189.754 13.1383 189.421 17.2607 195.537C20.2776 200.013 20.339 200.036 21.3994 197.141C23.4161 191.63 16.6879 181.297 9.18507 178.388C0.668246 175.083 -0.305643 175.343 0.0653624 180.81ZM295.528 177.748C294.714 178.739 293.548 179.236 292.937 178.855C292.326 178.474 291.826 178.765 291.826 179.502C291.826 180.24 292.92 180.844 294.259 180.844C295.597 180.844 297.091 181.497 297.579 182.295C298.204 183.316 297.484 183.497 295.146 182.904C291.199 181.903 290.704 183.914 294.332 186.204C297.763 188.368 297.496 189.231 292.892 190.852C286.709 193.031 286.01 192.694 286.574 187.81C287.232 182.118 284.383 181.837 279.195 187.079C273.388 192.947 275.802 199.91 282.18 195.688C283.843 194.587 286.519 194.046 288.453 194.42C290.364 194.789 291.826 194.501 291.826 193.755C291.826 191.959 299.128 189.686 303.733 190.048C306.37 190.254 307.493 189.776 307.493 188.443C307.493 187.398 308.621 185.517 310 184.265C312.482 182.008 312.479 182.001 309.735 183.588C307.407 184.935 306.606 184.854 304.722 183.077C297.07 175.86 297.076 175.864 295.528 177.748ZM262.088 179.894C260.658 181.462 259.29 183.837 259.049 185.172C258.808 186.508 257.82 187.866 256.853 188.191C255.589 188.617 255.293 188.026 255.797 186.078C256.182 184.59 255.985 183.692 255.361 184.084C254.735 184.474 254.224 185.769 254.224 186.964C254.224 188.157 252.28 190.191 249.903 191.484C242.276 195.636 240.055 199.03 239.674 207.115C239.425 212.425 239.568 213.232 240.197 210.085C240.969 206.233 241.247 205.989 242.762 207.842C244.02 209.383 245.054 209.6 246.752 208.681C250.848 206.466 251.006 207.36 247.251 211.497C243.57 215.552 243.57 215.552 248.083 211.814C250.565 209.757 252.347 207.617 252.043 207.06C251.738 206.502 252.933 204.693 254.698 203.041C257.128 200.764 258.236 197.944 259.271 191.393C260.16 185.773 261.566 181.751 263.29 179.896C264.749 178.327 265.66 177.044 265.315 177.044C264.97 177.044 263.518 178.326 262.088 179.894ZM195.941 180.844C195.497 182.257 194.547 183.048 193.831 182.6C192.953 182.052 192.806 184.005 193.38 188.598C194.364 196.469 200.358 203.642 205.949 203.642C209.904 203.642 209.895 202.544 205.907 198.721C204.173 197.059 203.102 195.351 203.524 194.923C203.948 194.496 204.952 195.049 205.758 196.154C207.175 198.098 211.874 201.109 213.491 201.109C216.027 201.109 207.156 186.48 201.922 182.031C197.646 178.396 196.764 178.221 195.941 180.844ZM98.0295 181.582C94.7356 183.225 91.2825 187.825 91.2825 190.57C91.2825 192.143 101.629 189.81 103.914 187.721C107.044 184.857 106.995 182.991 103.816 184.01C100.198 185.17 100.737 183.772 104.756 181.568C109.79 178.808 103.567 178.822 98.0295 181.582ZM211.079 186.184C208.104 187.867 208.65 189.023 213.531 191.375C219.572 194.286 222.567 194.286 220.222 191.373C218.708 189.492 218.777 189.34 220.798 190.106C222.06 190.585 223.33 190.976 223.618 190.976C225.401 190.976 223.78 199.781 221.636 201.742C220.257 203.002 219.129 204.754 219.129 205.633C219.129 206.512 218.576 207.42 217.9 207.653C217.189 207.897 217.012 210.181 217.481 213.086C218.129 217.112 218.476 217.611 219.247 215.62C219.774 214.257 220.246 213.887 220.294 214.799C220.342 215.711 220.94 216.108 221.622 215.683C222.331 215.24 222.542 215.747 222.114 216.875C221.703 217.956 221.992 218.84 222.755 218.84C223.518 218.84 224.142 217.701 224.142 216.307C224.142 214.914 224.68 213.774 225.338 213.774C227.5 213.774 235.423 202.08 235.423 198.89C235.423 195.699 233.91 195.545 227.392 198.073C225.742 198.712 225.378 197.78 225.297 192.695C225.243 189.312 224.912 187.26 224.562 188.135C224.088 189.325 223.082 189.131 220.588 187.368C216.95 184.798 214.148 184.448 211.079 186.184ZM29.8761 187.144C25.8088 189.741 37.3062 195.298 42.4 193.194C45.5335 191.9 45.5335 191.9 42.4 190.931C39.3342 189.983 39.3468 189.959 43.0267 189.796C46.6102 189.637 46.6729 189.541 44.3541 187.769C41.6342 185.691 32.7514 185.306 29.8761 187.144ZM116.441 192.924C115.012 196.781 113.844 200.52 113.844 201.231C113.844 201.942 113.233 202.143 112.486 201.677C111.74 201.211 112.022 202.574 113.113 204.706C114.205 206.837 115.097 209.788 115.097 211.261C115.097 212.736 115.667 215.017 116.363 216.331C117.576 218.621 117.43 218.643 112.916 216.844C108.203 214.967 108.203 214.967 111.641 217.894C115.081 220.823 115.081 220.823 106.505 220.332C100.238 219.974 96.8576 220.403 93.9434 221.927C91.75 223.072 89.4074 223.669 88.7393 223.251C88.07 222.833 87.5223 222.779 87.5223 223.131C87.5223 223.485 90.202 225.131 93.4759 226.792C99.8695 230.033 108.83 232.049 108.83 230.246C108.83 229.639 109.958 228.782 111.337 228.34C115.206 227.098 114.304 225.19 109.77 225.026C107.29 224.936 106.677 224.661 108.203 224.322C109.582 224.016 112.262 223.157 114.158 222.415C116.728 221.409 118.085 221.467 119.485 222.641C120.518 223.508 121.364 223.762 121.364 223.207C121.364 222.653 122.911 223.58 124.802 225.269C127.898 228.034 128.003 228.056 125.861 225.49C123.497 222.658 123.501 222.64 126.497 222.639C132.334 222.635 136.564 217.286 137.206 209.097C138.572 191.665 129.574 193.351 120.682 212.191C118.731 216.326 116.686 218.017 118.083 214.342C118.492 213.26 118.304 212.703 117.665 213.103C117.026 213.502 116.543 212.819 116.594 211.586C116.644 210.351 116.338 208.486 115.913 207.441C115.489 206.397 116.298 204.117 117.71 202.375C119.906 199.669 120.084 199.61 118.941 201.975C116.279 207.481 119.761 208 123.878 202.712C126.871 198.866 126.632 194.478 123.132 189.081C120.2 184.559 119.36 185.04 116.441 192.924ZM89.1943 193.87C82.5927 197.612 81.0372 201.539 82.5914 210.551C84.3725 220.89 84.8851 221.018 84.6069 211.056C84.4402 205.131 84.8375 203.116 86.2689 202.618C87.8908 202.053 87.9096 202.256 86.403 204.1C83.3572 207.829 86.3466 208.234 89.5089 204.521C91.9229 201.687 94.0662 192.024 92.2225 192.287C92.0495 192.312 90.6871 193.024 89.1943 193.87ZM24.8525 195.576C24.8525 198.75 35.3472 208.708 38.6937 208.708C41.5841 208.708 41.5841 208.708 38.6399 205.542C37.0205 203.8 36.2897 202.375 37.0142 202.375C37.7399 202.375 39.0347 203.23 39.8932 204.275C42.8989 207.934 45.2127 206.647 43.0894 202.498C39.4859 195.456 24.8525 189.901 24.8525 195.576ZM276.457 199.452C273.684 200.183 274.871 202.375 278.038 202.375C279.336 202.375 280.768 202.982 281.221 203.723C281.78 204.635 280.59 204.794 277.534 204.214C271.153 203.005 271.835 205.284 278.978 209.037C290.413 215.046 293.908 213.573 289.219 204.718C288.127 202.656 280.434 198.135 279.018 198.722C278.824 198.804 277.671 199.132 276.457 199.452ZM23.5615 204.837C24.3674 206.36 25.2147 208.589 25.4441 209.791C26.1184 213.332 33.5323 225.464 37.8139 230.033C42.3712 234.898 50.3679 240.994 47.5741 237.473C45.5874 234.97 47.3171 234.541 49.9229 236.889C51.4232 238.241 51.4308 238.14 49.9731 236.197C49.033 234.947 47.564 234.196 46.708 234.528C45.8519 234.86 44.1084 234.334 42.835 233.359C41.5615 232.384 41.1918 231.568 42.0127 231.546C42.8337 231.524 43.8602 232.085 44.2927 232.793C45.6727 235.05 47.0927 232.956 46.6478 229.32C46.2179 225.806 46.2179 225.806 47.6844 229.289C49.9204 234.599 52.5174 233.764 51.9534 227.918C50.5972 213.826 39.338 208.78 40.1753 222.64C40.3683 225.828 39.9672 228.34 39.2666 228.34C38.5772 228.34 38.0946 227.61 38.1936 226.72C38.2927 225.828 36.8826 223.47 35.0602 221.477C30.3023 216.278 29.4825 215.036 26.8116 208.964C25.4942 205.97 23.8949 203.193 23.2569 202.794C22.6177 202.395 22.7556 203.315 23.5615 204.837ZM317.46 211.483C308.447 219.225 307.186 222.107 313.32 220.947C317.229 220.207 317.351 220.282 315.087 222.03C313.749 223.062 312.165 223.907 311.567 223.907C310.969 223.907 310.827 224.477 311.253 225.173C314.878 231.099 326.921 221.033 326.921 212.076C326.921 204.186 326.02 204.129 317.46 211.483ZM198.65 207.112C197.444 209.084 202.441 215.918 206.375 217.679C210.142 219.363 210.142 219.363 207.115 222.999C205.45 224.998 204.088 227.956 204.088 229.572C204.088 232.23 203.582 232.48 198.761 232.209C185.824 231.481 186.394 236.577 200.26 245.608C208.309 250.851 213.505 250.744 208.475 245.438C204.301 241.036 205.232 240.486 210.475 244.258C215.761 248.061 215.595 243.431 210.225 237.25C208.085 234.788 206.847 232.773 207.473 232.773C208.099 232.773 210.696 230.844 213.244 228.485C216.441 225.525 217.875 224.806 217.875 226.164C217.875 227.244 218.209 227.791 218.616 227.38C220.625 225.349 217.685 221.387 215.177 222.744C211.988 224.469 210.9 223.544 213.527 221.341C215.295 219.859 215.13 219.352 211.991 216.625C208.648 213.721 209.163 213.556 214.653 215.775C217.042 216.74 217.042 216.711 214.653 213.423C211.382 208.919 200.233 204.523 198.65 207.112ZM3.54479 209.093C3.54479 216.404 14.0382 228.679 20.7288 229.194C26.7426 229.657 28.1063 227.758 23.7031 225.052C21.5774 223.746 19.8389 222.052 19.8389 221.289C19.8389 220.525 21.7391 221.087 24.0604 222.536C36.3587 230.218 30.8813 219.379 18.0967 210.737C12.7723 207.137 3.54479 206.094 3.54479 209.093ZM342.63 208.987C338.055 209.964 331.934 214.211 331.934 216.407C331.934 216.917 334.332 217.079 337.261 216.767C342.588 216.201 342.588 216.201 337.575 218.135C334.817 219.199 332.419 220.078 332.248 220.088C330.057 220.221 332.945 222.546 336.008 223.116C345.164 224.82 364.049 215.322 359.88 211.109C357.935 209.144 347.756 207.891 342.63 208.987ZM87.1049 210.819C84.4715 213.48 93.4333 219.523 98.215 218.311C102.084 217.329 102.263 215.091 98.4895 214.891C96.2396 214.771 96.4301 214.556 99.4295 213.826C103.19 212.912 103.19 212.912 99.6614 211.444C95.8097 209.84 88.436 209.473 87.1049 210.819ZM299.574 211.898C292.841 214.855 288.066 218.834 288.066 221.489C288.066 223.847 288.217 223.865 291.238 221.865C295.611 218.97 296.491 220.47 292.35 223.762C290.497 225.235 289.447 226.44 290.016 226.44C290.586 226.44 289.957 227.29 288.618 228.328C286.407 230.044 286.872 230.143 293.706 229.419C302.927 228.441 304.089 227.742 296.735 227.597C291.646 227.497 291.489 227.401 294.78 226.404C300.745 224.598 306.866 217.271 306.866 211.938C306.866 209.53 304.995 209.52 299.574 211.898ZM234.295 214.639C234.226 216.159 233.183 217.721 231.976 218.108C230.769 218.496 228.231 220.267 226.336 222.044C224.208 224.04 222.834 224.65 222.745 223.641C222.666 222.743 222.134 224.287 221.564 227.073C220.291 233.291 220.058 247.456 221.247 246.252C221.723 245.772 221.964 242.552 221.782 239.095C221.491 233.563 221.875 232.443 224.991 229.733C229.434 225.869 230.57 226.655 226.644 230.878C222.381 235.463 227.407 235.363 232.827 230.754C236.456 227.668 244.103 214.153 241.167 216.013C238.61 217.633 236.05 216.941 235.235 214.407C234.46 212.004 234.413 212.015 234.295 214.639ZM276.708 216.77C270.059 218.582 262.998 223.28 262.998 225.893C262.998 228.034 264.744 228.207 268.094 226.395C269.514 225.627 270.518 225.576 270.518 226.271C270.518 228.476 262.429 230.419 252.071 230.702C242.641 230.959 241.927 230.808 243.61 228.927C244.623 227.797 245.438 226.349 245.422 225.706C245.389 224.299 240.504 230.424 240.464 231.924C240.449 232.501 243.962 232.629 248.27 232.209C252.863 231.759 260.367 232.167 266.407 233.193C272.075 234.156 276.413 234.454 276.047 233.858C275.682 233.261 276.264 232.773 277.338 232.773C278.412 232.773 279.292 232.22 279.292 231.545C279.292 230.871 278.305 230.632 277.098 231.015C275.711 231.454 276.148 230.624 278.288 228.758C281.085 226.317 285.559 218.292 285.559 215.715C285.559 214.728 283.143 215.015 276.708 216.77ZM141.619 217.964C138.409 221.871 135.204 231.326 135.179 236.964C135.159 241.438 134.735 242.83 133.585 242.207C131.746 241.214 138.085 246.9 142.789 250.465C152.013 257.454 156.183 230.679 147.59 219.64C144.67 215.887 143.577 215.58 141.619 217.964ZM61.4479 220.796C64.733 222.598 64.7782 222.773 63.0309 227C59.6041 235.287 64.6277 245.438 72.1556 245.438C75.4608 245.438 75.4608 245.438 72.7184 242.856C71.2093 241.436 69.9747 239.647 69.9747 238.884C69.9747 238.119 71.5101 239.044 73.3865 240.941C80.2363 247.862 77.7069 236.484 70.6039 228.426C68.1899 225.687 66.2145 223.072 66.2145 222.613C66.2145 221.742 60.4765 218.804 58.9486 218.891C58.4635 218.919 59.5891 219.776 61.4479 220.796ZM339.962 226.518C334.043 230.443 332.49 235.862 338.164 232.793C339.639 231.995 341.52 231.6 342.344 231.916C343.167 232.232 341.585 233.546 338.828 234.838C333.814 237.188 333.814 237.188 339.2 237.589C348.295 238.267 362.275 228.484 356.978 225.149C353.919 223.223 343.692 224.046 339.962 226.518ZM80.0019 227.179C80.0019 227.514 81.2716 228.303 82.822 228.934C84.9829 229.811 85.1295 230.098 83.4487 230.16C80.6649 230.261 80.6963 231.122 83.6906 236.768C85.0305 239.294 85.7349 241.799 85.2574 242.336C84.7798 242.872 85.0593 242.923 85.8791 242.448C86.6975 241.974 87.8682 242.488 88.4799 243.591C89.2933 245.061 90.5329 245.358 93.1149 244.703C96.6382 243.811 96.6382 243.811 93.6476 241.339C90.8037 238.991 91.4667 238.934 96.7548 241.076C99.5636 242.212 97.31 236.762 94.2066 234.912C93.2591 234.346 92.8642 233.26 93.3292 232.499C93.872 231.611 93.5887 231.482 92.5396 232.137C91.5482 232.756 90.3587 232.422 89.5252 231.288C88.1953 229.481 80.0019 225.946 80.0019 227.179ZM302.856 231.759C305.415 234.346 304.509 235.835 301.853 233.406C297.994 229.876 298.446 234.511 302.347 238.453C305.865 242.008 305.364 242.959 300.077 242.758C297.952 242.677 297.165 242.358 298.33 242.047C300.259 241.532 300.231 241.238 298.016 238.711C296.679 237.186 294.74 234.942 293.706 233.722C291.604 231.245 287.369 230.608 288.824 232.988C289.433 233.985 289.047 234.205 287.644 233.66C286.282 233.132 285.559 233.497 285.559 234.712C285.559 235.735 286.157 236.572 286.886 236.572C287.616 236.572 287.905 237.078 287.527 237.694C287.149 238.312 288.019 239.128 289.459 239.509C290.899 239.891 291.752 240.734 291.354 241.384C290.957 242.035 293.814 243.213 297.704 244.003C306.002 245.686 312.291 245.869 311.394 244.401C311.044 243.83 312.361 243.602 314.32 243.892C317.135 244.31 318.057 245.257 318.71 248.412C319.537 252.404 319.537 252.404 321.39 248.921C323.875 244.244 324.38 244.532 323.607 250.188C322.791 256.153 327.45 251.448 328.919 244.823C329.379 242.743 330.67 240.32 331.785 239.437C333.624 237.983 333.609 237.905 331.621 238.605C329.984 239.18 329.428 238.699 329.428 236.708C329.428 233.12 327.802 233.348 322.891 237.625C316.613 243.094 314.867 243.334 313.081 238.977C311.355 234.766 306.294 230.239 303.313 230.239C301.788 230.239 301.686 230.578 302.856 231.759ZM18.5855 235.64C16.8621 236.427 15.259 237.2 15.0246 237.359C14.789 237.518 14.9645 238.819 15.4144 240.252C17.292 246.231 34.9173 250.21 40.8671 245.999C44.5571 243.389 44.4167 241.396 40.6102 242.362C38.9369 242.786 36.5404 242.53 35.2833 241.792C33.3555 240.658 33.6839 240.44 37.3865 240.391C44.7063 240.295 46.2868 238.292 40.8533 235.998C35.5101 233.743 23.1792 233.544 18.5855 235.64ZM251.391 235.075C252.252 235.627 249.936 236.043 246.198 236.006C239.485 235.939 234.128 238.684 234.197 242.151C234.212 242.914 235.2 242.278 236.391 240.738C238.726 237.718 249.21 235.14 249.21 237.584C249.21 238.319 250.197 239.18 251.404 239.499C252.97 239.912 252.747 240.12 250.624 240.225C248.063 240.352 247.878 240.649 249.289 242.368C250.489 243.828 252.131 244.151 255.397 243.567C265.414 241.779 266.636 240.411 260.507 237.845C258.448 236.984 257.07 235.774 257.448 235.159C257.824 234.543 256.266 234.048 253.984 234.058C251.48 234.071 250.452 234.473 251.391 235.075ZM275.532 238.951C275.532 239.563 276.8 240.925 278.352 241.979C279.903 243.033 280.778 244.307 280.298 244.811C279.817 245.315 277.857 244.481 275.941 242.958C274.01 241.423 272.264 240.778 272.022 241.51C270.948 244.769 283.448 256.837 287.9 256.837C290.112 256.837 289.671 246.043 287.38 244.122C285.824 242.818 285.763 242.274 287.067 241.381C288.331 240.514 288.276 240.322 286.812 240.523C285.778 240.663 283.344 240.117 281.404 239.308C277.186 237.551 275.532 237.451 275.532 238.951ZM339.141 245.539C336.138 247.306 336.364 249.596 339.443 248.608C340.816 248.167 342.65 248.271 343.517 248.839C344.53 249.501 343.299 250.131 340.081 250.595C335.068 251.32 335.068 251.32 339.728 253.445C349.242 257.784 362.204 255.612 357.583 250.452C352.5 244.778 344.195 242.566 339.141 245.539ZM181.84 247.052C174.586 248.507 175.057 250.502 184.347 257.654C188.656 260.971 192.463 263.997 192.807 264.377C194.423 266.161 205.341 267.643 205.341 266.078C205.341 265.436 203.656 263.277 201.594 261.283C196.638 256.485 197.633 255.886 203.909 259.889C213.139 265.776 210.87 257.045 201.161 249.314C198.092 246.869 188.401 245.734 181.84 247.052ZM254.21 249.554C251.545 253.971 251.036 258.855 252.925 261.873C253.88 263.399 254.322 263.167 255.333 260.606C256.571 257.47 256.571 257.47 256.652 261.174C256.731 264.878 256.731 264.878 259.859 261.908C261.58 260.274 263.352 259.306 263.797 259.755C264.242 260.205 263.257 261.716 261.609 263.113C258.138 266.051 259.884 268.282 265.504 268.09C268.638 267.984 268.638 267.984 265.504 267.067C262.519 266.193 262.494 266.108 264.97 265.279C268.932 263.95 273.913 257.953 274.872 253.354C275.911 248.374 274.089 247.991 266.928 251.683C262.185 254.128 262.185 254.128 260.63 249.784C258.693 244.37 257.366 244.323 254.21 249.554ZM46.6528 247.781C42.7034 249.012 34.8985 254.728 34.8884 256.396C34.8609 261.02 53.4036 261.265 58.2066 256.704C61.9568 253.145 62.3391 249.799 58.7769 251.726C57.4433 252.447 55.0455 253.025 53.45 253.01C51.2277 252.988 51.7967 252.408 55.874 250.538C63.5636 247.011 56.1886 244.806 46.6528 247.781ZM242.001 248.793C239.758 249.91 235.462 253.013 232.454 255.688C229.445 258.365 226.536 260.145 225.99 259.645C225.442 259.146 225.4 259.45 225.896 260.32C226.391 261.191 226.167 261.903 225.396 261.903C224.625 261.903 224.343 262.473 224.769 263.17C225.195 263.866 225.044 264.436 224.433 264.436C223.823 264.436 223.572 266.146 223.875 268.236C224.543 272.834 224.64 272.846 228.884 268.869C234.454 263.651 236.459 265.156 231.196 270.603C226.461 275.504 226.461 275.504 229.689 276.127C231.463 276.47 232.916 276.277 232.916 275.7C232.916 275.121 233.855 275.012 235.002 275.457C236.526 276.048 236.808 275.809 236.05 274.569C235.285 273.319 235.577 273.091 237.163 273.706C238.44 274.202 239.003 274.032 238.548 273.288C238.126 272.599 238.302 272.036 238.939 272.036C242.828 272.036 249.776 256.163 248.501 250.188C247.639 246.145 247.413 246.097 242.001 248.793ZM299.659 248.123C294.984 249.486 294.237 251.721 298.406 251.873C300.938 251.966 300.85 252.144 297.55 253.615C292.984 255.65 296.909 257.602 302.82 256.235C309.435 254.707 314.859 247.971 309.476 247.971C308.154 247.971 306.32 247.738 305.402 247.453C304.484 247.168 301.899 247.47 299.659 248.123ZM79.3752 250.601C69.0497 253.885 63.3932 258.62 66.6971 261.213C73.0167 266.17 85.1671 264.695 90.0892 258.372C93.1838 254.396 92.7489 253.919 87.6614 255.711C82.1627 257.648 81.3317 256.251 86.4042 253.6C97.3664 247.871 93.3455 246.156 79.3752 250.601ZM110.71 250.426C94.8534 254.344 84.6056 267.631 96.8488 268.398C98.2689 268.487 100.811 268.7 102.499 268.871C104.187 269.042 107.149 268.724 109.079 268.164C112.375 267.209 112.59 267.382 112.59 270.993C112.59 273.98 113.033 274.668 114.573 274.071C115.663 273.648 117.03 273.302 117.61 273.302C122.365 273.302 129.423 262.615 128.123 257.383C127.222 253.752 125.124 253.262 125.124 256.683C125.124 257.99 124.173 259.843 123.01 260.799C121.128 262.345 121.005 262.258 121.898 260.003C124.808 252.657 123.782 250.772 119.484 255.57C118.15 257.059 115.623 258.104 113.355 258.104C109.524 258.104 109.537 258.081 115.064 255.093C124.287 250.109 121.984 247.641 110.71 250.426ZM305.468 260.953C300.502 266.444 299.365 269.422 302.166 269.605C303.029 269.661 301.759 270.659 299.346 271.822C295.755 273.552 294.88 274.74 294.527 278.368C294.094 282.801 294.094 282.801 297.347 279.731C300.863 276.412 301.667 277.468 298.674 281.469C297.658 282.825 297.15 284.962 297.545 286.219C297.946 287.495 297.64 288.501 296.849 288.501C296.073 288.501 295.75 287.99 296.131 287.367C296.993 285.959 293.653 284.558 291.46 285.409C289.647 286.112 283.822 278.917 284.847 277.241C285.208 276.651 280.862 276.157 275.191 276.143C267.03 276.123 266.055 276.293 270.518 276.959C277.259 277.966 279.292 279.094 279.292 281.83C279.292 283.509 278.773 283.383 276.391 281.122C271.914 276.873 269.946 277.588 272.64 282.485C273.886 284.748 275.419 286.977 276.048 287.436C276.677 287.896 275.831 288.53 274.168 288.847C271.359 289.381 271.393 289.434 274.642 289.595C276.564 289.69 280.35 290.907 283.052 292.301C289.081 295.409 289.319 295.415 289.319 292.455C289.319 289.477 292.504 286.537 293.668 288.439C294.114 289.17 294.024 289.811 293.466 289.864C292.909 289.917 294.426 290.711 296.839 291.627C301.226 293.295 301.226 293.295 297.135 293.238C287.964 293.11 292.323 297.929 302.546 299.22C316.921 301.035 318.368 294.602 304.986 288.362C302.229 287.076 300.537 286.002 301.226 285.977C301.916 285.95 301.634 285.376 300.599 284.701C298.975 283.64 299.004 283.471 300.815 283.454C305.484 283.411 314.58 268.923 309.982 268.85C309.303 268.839 307.954 268.323 306.986 267.704C305.776 266.93 305.505 267.035 306.121 268.04C307.021 269.511 305.384 270.114 304.075 268.793C303.156 267.865 306.734 260.637 308.112 260.637C308.696 260.637 309.546 262.352 310.002 264.448C310.457 266.544 311.332 267.945 311.946 267.561C312.561 267.178 314.393 267.745 316.019 268.821C317.644 269.898 319.217 270.531 319.517 270.23C320.463 269.273 319.191 258.085 318.206 258.7C317.687 259.024 316.193 258.471 314.884 257.47C311.415 254.816 310.821 255.035 305.468 260.953ZM323.781 256.847C323.351 257.55 324.305 258.699 325.901 259.399C328.555 260.567 328.466 260.639 324.858 260.261C320.775 259.832 320.155 262.22 323.964 263.697C324.988 264.093 325.556 264.861 325.225 265.401C324.068 267.294 338.713 267.173 341.283 265.27C343.624 263.535 343.451 263.265 337.591 259.511C331.486 255.597 325.278 254.4 323.781 256.847ZM323.227 275.583C317.603 278.683 316.627 281.282 321.471 280.258C325.041 279.503 325.041 279.503 321.484 281.568C316.599 284.402 318.013 285.153 325.901 283.915C329.564 283.34 333.303 282.939 334.212 283.026C335.119 283.11 335.565 282.882 335.204 282.518C334.843 282.153 335.71 280.903 337.13 279.741C342.657 275.219 330.492 271.58 323.227 275.583ZM254.731 278.565C254.211 279.413 254.384 279.684 255.141 279.212C255.858 278.764 256.753 279.587 257.13 281.041C257.682 283.175 257.346 283.561 255.391 283.045C254.057 282.693 253.283 282.922 253.67 283.552C254.056 284.185 255.244 284.701 256.311 284.701C257.377 284.701 259.333 286.092 260.656 287.793C261.98 289.493 264.053 291.201 265.262 291.59C266.512 291.99 268.159 294.679 269.074 297.813C271.25 305.257 285.522 318.898 291.136 318.898C295.456 318.898 290.419 298.766 285.227 295.272C276.963 289.712 269.697 290.187 276.158 295.863C277.882 297.378 279.292 299.191 279.292 299.891C279.292 301.719 278.852 301.534 274.787 298.001C272.783 296.261 270.775 294.836 270.324 294.835C269.872 294.835 269.802 292.582 270.167 289.828C271.269 281.529 258.581 272.27 254.731 278.565ZM250.383 289.52C252.7 291.475 254.369 293.76 254.093 294.597C253.768 295.585 252.469 295.067 250.39 293.119C238.301 281.792 240.186 292.967 252.632 306.413C259.028 313.323 261.92 314.064 264.049 309.34C268.687 299.055 261.551 285.968 251.305 285.968C246.172 285.968 246.172 285.968 250.383 289.52ZM220.696 291.463C215.999 293.874 212.857 298.243 216.935 296.692C217.798 296.364 220.476 297.324 222.889 298.826C228.755 302.476 225.601 303.373 218.724 300.009C210.143 295.81 209.122 297.206 215.55 304.344C222.884 312.488 242.782 318.217 247.428 313.523C250.257 310.663 235.837 295.585 227.851 293.055C224.778 292.081 223.216 291.228 224.382 291.159C225.547 291.09 226.85 290.464 227.276 289.767C228.395 287.936 226.728 288.367 220.696 291.463Z" fill="#6B9030"/>
<path fill-rule="evenodd" clip-rule="evenodd" d="M319.965 152.526C321.865 147.604 323.546 142.009 323.701 140.092C323.983 136.606 323.983 136.606 322.999 139.685C314.72 165.59 296.431 185.406 273.875 192.914C265.098 195.835 261.009 200.375 268.772 198.576C278.226 196.386 289.166 194.808 293.477 195.014C300.261 195.336 301.59 192.174 295.02 191.344C292.335 191.004 289.943 190.614 289.705 190.476C289.467 190.338 291.263 188.911 293.695 187.303C303.926 180.548 314.606 166.41 319.965 152.526Z" fill="url(#paint0_linear_3289_3514)"/>
<path fill-rule="evenodd" clip-rule="evenodd" d="M285.658 56.233C285.452 64.4453 279.992 68.4793 260.008 75.187C246.156 79.8378 242.244 82.8547 239.248 91.1962C237.702 95.5076 236.223 97.1351 232.021 99.1502C226.284 101.902 226.147 102.086 227.812 104.746C228.752 106.245 230.253 105.963 236.881 103.036C255.542 94.797 271.771 99.3908 271.771 112.913C271.771 114.002 272.982 115.548 274.461 116.347C276.923 117.679 277.085 117.548 276.359 114.809C275.923 113.163 275.558 111.182 275.549 110.41C275.539 109.636 274.094 106.862 272.337 104.244C265.749 94.4348 301.69 105.422 314.708 117.197C315.918 118.293 317.221 118.873 317.602 118.488C318.31 117.772 313.627 114.207 302.48 106.976C288.557 97.9444 258.408 91.3254 246.677 94.7249C242.072 96.0598 241.67 93.6774 245.443 87.4244C247.865 83.4094 257.589 77.9468 265.427 76.1977C278.664 73.2441 289.506 61.7438 286.411 53.9393C286.051 53.0311 285.712 54.0634 285.658 56.233ZM150.221 92.4248C154.143 97.8963 155.02 100.564 152.385 99.0071C151.524 98.4979 151.883 99.3085 153.185 100.808C154.486 102.308 155.711 105.572 155.906 108.062C156.641 117.411 158.12 123.402 161.211 129.548C163.593 134.287 164.422 137.952 164.501 144.113C164.584 150.539 165.018 152.345 166.486 152.345C171.135 152.345 171.496 163.991 167.118 172.713C161.763 183.377 162.611 190.565 169.306 191.272C172.237 191.582 174.656 191.783 174.683 191.721C174.98 191.048 172.761 137.015 172.104 128.961C171.206 117.95 167.646 117.891 165.111 128.846C163.983 133.72 160.669 125.505 158.922 113.508C157.498 103.725 151.457 89.1457 148.324 87.931C147.302 87.5346 148.141 89.5244 150.221 92.4248ZM104.33 101.367C107.737 106.048 112.598 117.385 112.491 120.402C112.426 122.271 112.159 122.578 111.697 121.315C109.064 114.122 90.7723 99.8772 87.8983 102.78C87.4621 103.222 87.7955 103.583 88.6403 103.583C89.4851 103.583 89.8285 104.153 89.4024 104.85C88.9512 105.587 90.2045 106.116 92.4017 106.116C96.4853 106.116 107.862 116.237 109.445 121.278C110.337 124.118 116.372 124.984 116.32 122.265C116.265 119.283 110.452 106.333 107.446 102.494C103.992 98.0812 101.207 97.073 104.33 101.367ZM219.611 106.324C214.039 110.549 205.341 119.173 205.341 120.475C205.341 121.116 203.391 123.821 201.008 126.488C193.825 134.523 190.734 141.642 193.532 143.709C197.229 146.441 198.464 145.704 201.341 139.047C203.261 134.605 204.796 132.714 206.486 132.714C207.809 132.714 209.082 132.143 209.312 131.444C209.542 130.746 216.216 129.463 224.144 128.594C238.556 127.014 238.556 127.014 230.409 126.381C225.928 126.033 219.541 126.209 216.216 126.772C207.201 128.299 206.767 127.445 213.066 120.593C216.223 117.159 219.168 113.167 219.609 111.722C220.05 110.278 221.554 107.855 222.952 106.339C226.22 102.795 224.279 102.786 219.611 106.324ZM184.233 118.93C180.275 125.336 179.712 148.21 183.061 166.627C184.358 173.759 184.225 175.459 181.764 183.182C178.386 193.777 178.378 194.797 181.622 200.354C185.326 206.696 181.275 207.752 167.068 204.149C162.973 203.112 163.178 211.176 167.766 231.505C169.102 237.426 170.456 243.867 170.775 245.816C171.095 247.766 172.757 254.321 174.469 260.381C178.555 274.848 179.984 283.397 177.356 277.657C175.201 272.953 167.242 243.924 165.223 233.405C159.465 203.41 154.541 188.761 148.184 182.704C142.795 177.568 142.006 177.265 144.157 181.16C145.912 184.339 148.891 192.312 148.92 193.91C148.93 194.479 146.542 193.008 143.612 190.642C138.334 186.379 129.239 182.011 121.991 180.258C115.484 178.684 92.0232 177.35 89.4024 178.406C87.7968 179.052 90.276 179.45 96.296 179.511C101.466 179.564 108.517 180.363 111.963 181.286C115.41 182.211 118.907 182.736 119.736 182.454C120.563 182.172 124.942 183.802 129.467 186.076C149.488 196.145 152.882 202.681 157.669 240.371C159.356 253.658 163.727 271.194 169.509 287.867C173.79 300.209 175.473 309.163 172.724 304.965C172.039 303.92 169.524 296.891 167.135 289.345C160.33 267.85 154.635 259.418 138.19 246.478C131.803 241.454 130.416 239.624 129.069 234.446C128.175 231.016 125.588 226.164 123.168 223.378C118.429 217.924 117.392 218.27 121.405 223.964C124.655 228.578 128.08 239.587 125.971 238.646C115.712 234.067 108.677 231.432 105.07 230.815C90.6833 228.359 84.5129 222.404 82.3558 208.892C81.061 200.777 80.1786 198.657 76.5074 194.838C72.1857 190.342 72.1857 190.342 75.4671 194.556C79.1346 199.265 79.0756 199.051 79.3777 208.755C79.498 212.613 79.9806 217.315 80.4494 219.204C81.4646 223.288 79.5858 223.725 74.9908 220.472C73.3075 219.28 69.9384 218.2 67.5056 218.07C65.0715 217.94 59.8385 216.383 55.8741 214.607C51.9108 212.832 48.667 211.627 48.667 211.927C48.667 213.994 73.8164 225.932 80.9069 227.232C84.5693 227.903 103.788 235.847 110.71 239.552C115.724 242.234 115.724 242.234 107.577 243.122C69.4233 247.275 55.5056 244.553 41.2519 230.15C39.1262 228.002 37.3865 226.827 37.3865 227.538C37.3865 229.642 51.3317 240.514 57.4408 243.173C70.4047 248.814 75.5198 249.438 95.277 247.796C127.445 245.121 131.415 247.299 149.846 277.734C169.158 309.622 148.002 440.325 133.631 461.519C127.481 470.589 156.334 470.034 86.8956 472.039C64.1139 472.696 97.9067 473.009 190.301 472.999C271.578 472.989 315.025 472.62 296.839 472.095C279.95 471.606 254.363 471.032 239.979 470.821C213.828 470.436 238.896 470.436 235.29 466.544C221.06 451.182 195.134 326.375 208.515 305.944C210.216 303.345 211.608 300.353 211.608 299.292C211.608 298.234 212.454 297.366 213.489 297.366C214.523 297.366 215.369 296.645 215.369 295.765C215.369 294.205 218.097 292.744 235.909 284.768C244.385 280.972 249.176 280.023 250.929 281.792C252.871 283.756 257.96 283.578 257.199 281.575C256.795 280.507 255.846 279.634 255.092 279.634C254.198 279.634 254.149 279.204 254.952 278.392C255.628 277.709 262.085 276.824 269.303 276.425C299.021 274.783 296.724 271.243 265.61 270.735C251.884 270.511 232.672 274.961 220.698 281.139C216.366 283.374 216.485 282.566 222.782 266.969C230.536 247.764 235.489 238.823 239.45 236.879C246.117 233.608 265.987 234.656 281.168 239.082C290.898 241.918 292.946 242.215 291.136 240.528C286.608 236.307 257.945 230.853 247.334 232.193C239.217 233.218 239.135 233.001 244.736 225.293C261.644 202.017 284.072 192.831 311.598 197.906C313.477 198.252 312.477 197.684 309.376 196.645C301.429 193.98 285.683 193.452 282.167 195.733C280.647 196.719 278.877 197.198 278.234 196.798C277.592 196.396 272.953 197.782 267.926 199.877C260.851 202.825 258.548 203.323 257.735 202.081C256.63 200.395 253.027 203.878 252.92 206.733C252.893 207.471 250.09 210.29 246.693 212.998C242.937 215.992 239.974 219.583 239.133 222.161C238.371 224.491 235.623 228.26 233.028 230.535C230.431 232.81 226.664 237.521 224.657 241.004C220.435 248.334 218.904 241.421 221.549 226.963C222.556 221.465 222.473 219.149 221.181 216.657C219.288 213.008 217.956 222.518 217.326 244.171C216.683 266.261 201.891 283.005 195.19 269.226C193.453 265.653 189.817 261.74 184.533 257.756C175.064 250.619 174.524 248.518 181.78 247.067C187.047 246.015 187.047 246.015 186.734 234.01C186.561 227.408 187.051 218.871 187.821 215.04C188.592 211.209 189.384 206.649 189.582 204.908C189.781 203.166 190.83 196.612 191.914 190.342C195.422 170.056 195.877 160.773 193.496 158.113C192.349 156.833 190.947 154.155 190.382 152.164C189.458 148.904 189.267 148.797 188.454 151.079C187.959 152.472 187.226 154.467 186.826 155.512C185.35 159.366 184.292 140.568 185.331 128.951C186.523 115.624 186.485 115.285 184.233 118.93ZM69.9747 138.526C64.8045 139.308 59.1642 140.615 57.4408 141.432C54.3073 142.917 54.3073 142.917 57.4408 142.25C83.7997 136.631 109.907 142.816 127.567 158.861C134.438 165.103 140.369 166.432 134.966 160.52C128.385 153.319 121.592 144.512 119.625 140.63C116.53 134.521 113.154 134.928 115.707 141.101C116.75 143.624 117.604 145.915 117.604 146.193C117.604 146.47 115.486 145.605 112.896 144.271C102.01 138.659 84.5605 136.324 69.9747 138.526ZM233.506 185.154C232.941 186.508 233.14 189.988 233.961 193.089C234.765 196.127 235.423 202.86 235.423 208.052C235.423 216.258 235.69 217.389 237.466 216.702C239.212 216.024 239.407 214.332 238.816 205.025C237.997 192.172 235.102 181.334 233.506 185.154Z" fill="url(#paint1_linear_3289_3514)"/>
<defs>
<linearGradient id="paint0_linear_3289_3514" x1="180.625" y1="53.6094" x2="180.625" y2="472.999" gradientUnits="userSpaceOnUse">
<stop stop-color="#2D1608"/>
<stop offset="0.67" stop-color="#93481A"/>
<stop offset="0.975" stop-color="white"/>
</linearGradient>
<linearGradient id="paint1_linear_3289_3514" x1="180.625" y1="53.6094" x2="180.625" y2="472.999" gradientUnits="userSpaceOnUse">
<stop stop-color="#2D1608"/>
<stop offset="0.67" stop-color="#93481A"/>
<stop offset="0.975" stop-color="white"/>
</linearGradient>
</defs>
</svg>
